<svg width="181" height="39" viewBox="0 0 181 39" fill="none" xmlns="http://www.w3.org/2000/svg">
<g clip-path="url(#clip0_206_9)">
<path d="M17.8518 3.78662V27.5328L0 38.0806L17.8518 3.78662Z" fill="white"/>
<path d="M18.9081 3.78662V27.5328L36.7599 38.0806L18.9081 3.78662Z" fill="white"/>
<path d="M18.3278 28.5601L0.687282 38.9998H36.0211L18.3278 28.5601Z" fill="white"/>
<path d="M63.692 26.66H55.18L53.612 31H50.924L57.98 11.596H60.92L67.948 31H65.26L63.692 26.66ZM62.964 24.588L59.436 14.732L55.908 24.588H62.964ZM73.5712 28.928H80.4032V31H71.0232V11.484H73.5712V28.928ZM97.8931 17.14C97.3518 16.0013 96.5678 15.124 95.5411 14.508C94.5145 13.8733 93.3198 13.556 91.9571 13.556C90.5945 13.556 89.3625 13.8733 88.2611 14.508C87.1785 15.124 86.3198 16.02 85.6851 17.196C85.0691 18.3533 84.7611 19.6973 84.7611 21.228C84.7611 22.7587 85.0691 24.1027 85.6851 25.26C86.3198 26.4173 87.1785 27.3133 88.2611 27.948C89.3625 28.564 90.5945 28.872 91.9571 28.872C93.8611 28.872 95.4291 28.3027 96.6611 27.164C97.8931 26.0253 98.6118 24.4853 98.8171 22.544H91.0331V20.472H101.533V22.432C101.384 24.0373 100.88 25.512 100.021 26.856C99.1625 28.1813 98.0331 29.236 96.6331 30.02C95.2331 30.7853 93.6745 31.168 91.9571 31.168C90.1465 31.168 88.4945 30.748 87.0011 29.908C85.5078 29.0493 84.3225 27.864 83.4451 26.352C82.5865 24.84 82.1571 23.132 82.1571 21.228C82.1571 19.324 82.5865 17.616 83.4451 16.104C84.3225 14.5733 85.5078 13.388 87.0011 12.548C88.4945 11.6893 90.1465 11.26 91.9571 11.26C94.0291 11.26 95.8585 11.7733 97.4451 12.8C99.0505 13.8267 100.217 15.2733 100.945 17.14H97.8931ZM107.45 13.556V20.08H114.562V22.18H107.45V28.9H115.402V31H104.902V11.456H115.402V13.556H107.45ZM129.03 20.948C129.739 21.06 130.383 21.3493 130.962 21.816C131.559 22.2827 132.026 22.8613 132.362 23.552C132.716 24.2427 132.894 24.98 132.894 25.764C132.894 26.7533 132.642 27.6493 132.138 28.452C131.634 29.236 130.896 29.8613 129.926 30.328C128.974 30.776 127.844 31 126.538 31H119.258V11.484H126.258C127.583 11.484 128.712 11.708 129.646 12.156C130.579 12.5853 131.279 13.1733 131.746 13.92C132.212 14.6667 132.446 15.5067 132.446 16.44C132.446 17.5973 132.128 18.5587 131.494 19.324C130.878 20.0707 130.056 20.612 129.03 20.948ZM121.806 19.912H126.09C127.284 19.912 128.208 19.632 128.862 19.072C129.515 18.512 129.842 17.7373 129.842 16.748C129.842 15.7587 129.515 14.984 128.862 14.424C128.208 13.864 127.266 13.584 126.034 13.584H121.806V19.912ZM126.314 28.9C127.583 28.9 128.572 28.6013 129.282 28.004C129.991 27.4067 130.346 26.576 130.346 25.512C130.346 24.4293 129.972 23.58 129.226 22.964C128.479 22.3293 127.48 22.012 126.23 22.012H121.806V28.9H126.314ZM146.705 31L142.057 23.02H138.977V31H136.429V11.484H142.729C144.204 11.484 145.445 11.736 146.453 12.24C147.48 12.744 148.245 13.4253 148.749 14.284C149.253 15.1427 149.505 16.1227 149.505 17.224C149.505 18.568 149.113 19.7533 148.329 20.78C147.564 21.8067 146.407 22.488 144.857 22.824L149.757 31H146.705ZM138.977 20.976H142.729C144.111 20.976 145.147 20.64 145.837 19.968C146.528 19.2773 146.873 18.3627 146.873 17.224C146.873 16.0667 146.528 15.1707 145.837 14.536C145.165 13.9013 144.129 13.584 142.729 13.584H138.977V20.976ZM165.001 26.66H156.489L154.921 31H152.233L159.289 11.596H162.229L169.257 31H166.569L165.001 26.66ZM164.273 24.588L160.745 14.732L157.217 24.588H164.273Z" fill="white"/>
</g>
<defs>
<clipPath id="clip0_206_9">
<rect width="181" height="39" fill="white"/>
</clipPath>
</defs>
</svg>
