<svg width="20" height="20" viewBox="0 0 20 20" fill="none" xmlns="http://www.w3.org/2000/svg">
<path d="M8.61084 14.1667V9.53667C8.61084 9.02584 9.02584 8.61084 9.53667 8.61084H11.3883" stroke="currentColor" stroke-width="1.25" stroke-linecap="round" stroke-linejoin="round"/>
<path fill-rule="evenodd" clip-rule="evenodd" d="M15 17.5H5C3.61917 17.5 2.5 16.3808 2.5 15V5C2.5 3.61917 3.61917 2.5 5 2.5H15C16.3808 2.5 17.5 3.61917 17.5 5V15C17.5 16.3808 16.3808 17.5 15 17.5Z" stroke="currentColor" stroke-width="1.25" stroke-linecap="round" stroke-linejoin="round"/>
<path d="M11.3892 14.1667V6.75921C11.3892 6.24837 11.8034 5.83337 12.315 5.83337H13.2409C13.7517 5.83337 14.1667 6.24837 14.1667 6.75921V13.2409C14.1667 13.7517 13.7517 14.1667 13.2409 14.1667H6.75921C6.24837 14.1667 5.83337 13.7517 5.83337 13.2409V12.315C5.83337 11.8042 6.24837 11.3892 6.75921 11.3892H8.61087" stroke="currentColor" stroke-width="1.25" stroke-linecap="round" stroke-linejoin="round"/>
</svg>
