<svg width="24" height="22" viewBox="0 0 24 22" fill="none" xmlns="http://www.w3.org/2000/svg">
<path d="M15.2856 5.42303H8.71434C7.24445 5.42303 6.03395 6.63353 6.03395 8.10342C6.03395 8.83836 6.33658 9.57331 6.8986 10.0489C6.29335 11 5.99072 12.124 5.99072 13.248C5.99072 16.5769 8.67111 19.2573 12 19.2573C15.3288 19.2573 18.0092 16.5769 18.0092 13.248C18.0092 12.124 17.7066 11 17.1014 10.0489C17.6634 9.53008 17.966 8.83836 17.966 8.10342C17.966 6.5903 16.7555 5.42303 15.2856 5.42303ZM17.1446 13.248C17.1446 16.1013 14.8533 18.3926 12 18.3926C9.14666 18.3926 6.85536 16.1013 6.85536 13.248C6.85536 12.1672 7.20122 11.0864 7.8497 10.2218C7.93616 10.1353 7.93616 10.0056 7.93616 9.87593C7.93616 9.74624 7.8497 9.65977 7.76324 9.57331C7.24445 9.22745 6.94183 8.66544 6.94183 8.06019C6.94183 7.06585 7.76324 6.24444 8.75757 6.24444H15.3288C16.3232 6.24444 17.1446 7.06585 17.1446 8.06019C17.1446 8.66544 16.842 9.22745 16.3232 9.57331C16.2367 9.65977 16.1502 9.74624 16.1502 9.87593C16.1502 10.0056 16.1502 10.0921 16.2367 10.2218C16.7987 11.0864 17.1446 12.124 17.1446 13.248Z" fill="currentColor" stroke="currentColor" stroke-width="0.35"/>
<path d="M10.7459 8.24923C10.7459 7.47105 10.0974 6.82257 9.31923 6.82257C8.54106 6.82257 7.89258 7.47105 7.89258 8.24923C7.89258 9.0274 8.54106 9.67589 9.31923 9.67589C10.0974 9.67589 10.7459 9.0274 10.7459 8.24923ZM8.75722 8.24923C8.75722 7.9466 9.01661 7.68721 9.31923 7.68721C9.62186 7.68721 9.88125 7.9466 9.88125 8.24923C9.88125 8.55185 9.62186 8.81124 9.31923 8.81124C9.01661 8.81124 8.75722 8.55185 8.75722 8.24923ZM14.68 6.82257C13.9018 6.82257 13.2534 7.47105 13.2534 8.24923C13.2534 9.0274 13.9018 9.67589 14.68 9.67589C15.4582 9.67589 16.1067 9.0274 16.1067 8.24923C16.1067 7.47105 15.4582 6.82257 14.68 6.82257ZM14.68 8.81124C14.3774 8.81124 14.118 8.55185 14.118 8.24923C14.118 7.9466 14.3774 7.68721 14.68 7.68721C14.9826 7.68721 15.242 7.9466 15.242 8.24923C15.242 8.55185 14.9826 8.81124 14.68 8.81124ZM15.1988 15.3825C14.2909 14.8637 13.3398 14.6043 12.4319 14.5179V13.048C12.4319 12.2266 13.0804 11.5781 13.9018 11.5781H14.4206C14.68 11.5781 14.8529 11.4052 14.8529 11.1458C14.8529 10.8864 14.68 10.7135 14.4206 10.7135H13.9018C13.1237 10.7135 12.4319 11.1025 11.9996 11.7078C11.5673 11.1025 10.8756 10.7135 10.0974 10.7135H9.57863C9.31924 10.7135 9.14631 10.8864 9.14631 11.1458C9.14631 11.4052 9.31924 11.5781 9.57863 11.5781H10.0974C10.9188 11.5781 11.5673 12.2266 11.5673 13.048V14.5179C10.6594 14.6043 9.70832 14.8637 8.80045 15.3825C8.58429 15.5122 8.49783 15.7716 8.62752 15.9878C8.75722 16.2039 9.01661 16.2904 9.23277 16.1607C10.1839 15.6419 11.0917 15.3825 11.9996 15.3825C12.9075 15.3825 13.8154 15.6419 14.7665 16.1607C14.8529 16.2039 14.8962 16.2039 14.9826 16.2039C15.1556 16.2039 15.2853 16.1175 15.3717 15.9878C15.5014 15.7716 15.415 15.5122 15.1988 15.3825Z" fill="currentColor"/>
<path d="M21.2086 4.688C20.6898 4.688 20.2143 4.94739 19.8252 5.33648C18.0959 2.5264 15.2426 0.667419 12.0002 0.667419C8.75781 0.667419 5.90449 2.5264 4.21844 5.37971C3.82935 4.94739 3.3538 4.73123 2.83502 4.73123C1.53806 4.73123 0.500488 6.20112 0.500488 8.10333C0.500488 9.87584 1.40836 11.3025 2.61886 11.4754C2.70532 16.9659 6.81236 21.3323 12.0002 21.3323C17.1881 21.3323 21.2951 17.0091 21.3816 11.4322C22.5921 11.3025 23.4999 9.87584 23.4999 8.0601C23.4999 6.15789 22.5056 4.688 21.2086 4.688ZM1.36513 8.0601C1.36513 6.7199 2.01361 5.55264 2.83502 5.55264C3.18087 5.55264 3.52673 5.7688 3.78612 6.15789C3.13764 7.45485 2.74855 8.96797 2.66209 10.5243C1.92715 10.3946 1.36513 9.31383 1.36513 8.0601ZM12.0002 20.4677C7.20145 20.4677 3.4835 16.4039 3.4835 11.216C3.4835 5.8985 7.28792 1.53206 12.0002 1.53206C16.7125 1.53206 20.5169 5.85526 20.5169 11.216C20.5169 16.4039 16.799 20.4677 12.0002 20.4677ZM21.3816 10.5676C21.2951 9.0112 20.906 7.49808 20.2575 6.20112C20.5169 5.81203 20.8628 5.59587 21.2086 5.59587C21.9868 5.59587 22.6785 6.76314 22.6785 8.10333C22.6353 9.31383 22.0733 10.3946 21.3816 10.5676Z" fill="currentColor" stroke="currentColor" stroke-width="0.35"/>
</svg>
