<svg width="20" height="20" viewBox="0 0 20 20" fill="none" xmlns="http://www.w3.org/2000/svg">
<path d="M11.6665 16.1108H13.889C15.4232 16.1108 16.6665 14.8675 16.6665 13.3333" stroke="white" stroke-width="1.25" stroke-linecap="round" stroke-linejoin="round"/>
<path d="M13.0557 17.5L11.6665 16.1108L13.0557 14.7225" stroke="white" stroke-width="1.25" stroke-linecap="round" stroke-linejoin="round"/>
<path d="M8.33325 3.88916H6.11075C4.57659 3.88916 3.33325 5.13249 3.33325 6.66666" stroke="white" stroke-width="1.25" stroke-linecap="round" stroke-linejoin="round"/>
<path d="M6.94409 2.5L8.33326 3.88917L6.94409 5.2775" stroke="white" stroke-width="1.25" stroke-linecap="round" stroke-linejoin="round"/>
<path d="M3.33325 14.7925V14.895C3.33325 15.6433 3.93992 16.25 4.68825 16.25H6.14575C6.89325 16.25 7.49992 15.6433 7.49992 14.895V14.895C7.49992 14.2658 7.06659 13.7192 6.45409 13.5758L4.37992 13.09C3.76659 12.9475 3.33325 12.4008 3.33325 11.7717V11.7717C3.33325 11.0233 3.93992 10.4167 4.68825 10.4167H6.14575C6.89325 10.4167 7.49992 11.0233 7.49992 11.7717V11.8742" stroke="white" stroke-width="1.25" stroke-linecap="round" stroke-linejoin="round"/>
<path fill-rule="evenodd" clip-rule="evenodd" d="M15.2308 9.58331H12.5067C12.5033 9.58331 12.5 9.57997 12.5 9.57664V6.71831C12.5 6.71497 12.5033 6.71164 12.5067 6.71164H15.2308C16.0242 6.71164 16.6667 7.35414 16.6667 8.14747V8.14747C16.6667 8.94081 16.0242 9.58331 15.2308 9.58331V9.58331Z" stroke="white" stroke-width="1.25" stroke-linecap="round" stroke-linejoin="round"/>
<path d="M12.5 6.71167V3.75H14.8658C15.6833 3.75 16.3467 4.41333 16.3467 5.23083V5.23083C16.3467 6.04833 15.6792 6.71167 14.8567 6.71167" stroke="white" stroke-width="1.25" stroke-linecap="round" stroke-linejoin="round"/>
<path d="M14.1667 3.74999V2.91666" stroke="white" stroke-width="1.25" stroke-linecap="round" stroke-linejoin="round"/>
<path d="M14.1667 10.4167V9.58334" stroke="white" stroke-width="1.25" stroke-linecap="round" stroke-linejoin="round"/>
<path d="M5.41642 10.4167V9.58334" stroke="white" stroke-width="1.25" stroke-linecap="round" stroke-linejoin="round"/>
<path d="M5.41642 17.0833V16.25" stroke="white" stroke-width="1.25" stroke-linecap="round" stroke-linejoin="round"/>
</svg>
