<svg width="20" height="20" viewBox="0 0 20 20" fill="none" xmlns="http://www.w3.org/2000/svg">
  <path d="M11.6674 12.4175V17.1698C11.6682 17.8141 12.9736 18.3368 14.5848 18.3368C16.1961 18.3368 17.5015 17.8141 17.5023 17.1698V12.4175" stroke="currentColor" stroke-width="1.5" stroke-linecap="round" stroke-linejoin="round"/>
  <path d="M11.6682 14.7937C11.6682 15.438 12.9744 15.9607 14.5857 15.9607C16.1969 15.9607 17.5031 15.438 17.5031 14.7937" stroke="currentColor" stroke-width="1.5" stroke-linecap="round" stroke-linejoin="round"/>
  <path d="M4.99792 9.16635H5.83161" stroke="currentColor" stroke-width="1.5" stroke-linecap="round" stroke-linejoin="round"/>
  <path d="M8.33264 9.16635H9.16632" stroke="currentColor" stroke-width="1.5" stroke-linecap="round" stroke-linejoin="round"/>
  <path d="M4.99792 11.6673H5.83161" stroke="currentColor" stroke-width="1.5" stroke-linecap="round" stroke-linejoin="round"/>
  <path d="M8.33264 11.6673H9.16632" stroke="currentColor" stroke-width="1.5" stroke-linecap="round" stroke-linejoin="round"/>
  <path d="M4.99792 9.16635H5.83161" stroke="currentColor" stroke-width="1.5" stroke-linecap="round" stroke-linejoin="round"/>
  <path d="M8.33264 9.16635H9.16632" stroke="currentColor" stroke-width="1.5" stroke-linecap="round" stroke-linejoin="round"/>
  <path d="M4.99792 14.1684H5.83161" stroke="currentColor" stroke-width="1.5" stroke-linecap="round" stroke-linejoin="round"/>
  <path d="M8.33264 14.1684H9.16632" stroke="currentColor" stroke-width="1.5" stroke-linecap="round" stroke-linejoin="round"/>
  <path d="M4.99792 14.1684H5.83161" stroke="currentColor" stroke-width="1.5" stroke-linecap="round" stroke-linejoin="round"/>
  <path d="M8.33264 14.1684H9.16632" stroke="currentColor" stroke-width="1.5" stroke-linecap="round" stroke-linejoin="round"/>
  <path d="M15.0021 6.66525H2.49689" stroke="currentColor" stroke-width="1.5" stroke-linecap="round" stroke-linejoin="round"/>
  <path d="M9.16633 16.6695H4.16425C3.24339 16.6695 2.49689 15.923 2.49689 15.0022V4.16431C2.49689 3.24345 3.24339 2.49695 4.16425 2.49695H13.3347C14.2556 2.49695 15.0021 3.24345 15.0021 4.16431V9.16639" stroke="currentColor" stroke-width="1.5" stroke-linecap="round" stroke-linejoin="round"/>
  <path d="M4.99792 9.16635H5.83161" stroke="currentColor" stroke-width="1.5" stroke-linecap="round" stroke-linejoin="round"/>
  <path d="M8.33264 9.16635H9.16632" stroke="currentColor" stroke-width="1.5" stroke-linecap="round" stroke-linejoin="round"/>
  <path d="M11.6674 9.16635H12.501" stroke="currentColor" stroke-width="1.5" stroke-linecap="round" stroke-linejoin="round"/>
  <path d="M11.6682 12.4175C11.6682 13.0618 12.9744 13.5845 14.5857 13.5845C16.1969 13.5845 17.5023 13.0618 17.5023 12.4175C17.5023 11.7723 16.1953 11.2505 14.5848 11.2505C12.9744 11.2505 11.6682 11.7731 11.6674 12.4175" stroke="currentColor" stroke-width="1.5" stroke-linecap="round" stroke-linejoin="round"/>
</svg>
