<svg width="24" height="24" viewBox="0 0 24 24" fill="none" xmlns="http://www.w3.org/2000/svg">
<ellipse cx="8.99872" cy="9.99921" rx="6.0025" ry="2.50104" stroke="currentColor" stroke-width="1.5" stroke-linecap="round" stroke-linejoin="round"/>
<path d="M15.0012 13.5006C15.0012 14.8819 12.3138 16.0017 8.99872 16.0017C5.68363 16.0017 2.99622 14.8819 2.99622 13.5006" stroke="currentColor" stroke-width="1.5" stroke-linecap="round" stroke-linejoin="round"/>
<path d="M21.0037 9.99915C21.0037 11.3804 18.3163 12.5002 15.0012 12.5002" stroke="currentColor" stroke-width="1.5" stroke-linecap="round" stroke-linejoin="round"/>
<path d="M15.0012 9.99915V17.5023C15.0012 18.8836 12.3138 20.0033 8.99872 20.0033C5.68363 20.0033 2.99622 18.8836 2.99622 17.5023V9.99915" stroke="currentColor" stroke-width="1.5" stroke-linecap="round" stroke-linejoin="round"/>
<path d="M21.0037 6.49768V14.0008C21.0037 15.3821 18.3163 16.5018 15.0012 16.5018" stroke="currentColor" stroke-width="1.5" stroke-linecap="round" stroke-linejoin="round"/>
<path d="M9.49893 7.50817C9.20194 7.25323 9.02137 6.88849 8.99872 6.49775C8.99872 5.11717 11.6898 3.9967 15.0012 3.9967C18.3126 3.9967 21.0037 5.11717 21.0037 6.49775C21.0037 7.87832 18.3126 8.99879 15.0012 8.99879C14.8311 8.99879 14.6611 8.99879 14.501 8.98878" stroke="currentColor" stroke-width="1.5" stroke-linecap="round" stroke-linejoin="round"/>
</svg>
