<svg width="20" height="21" viewBox="0 0 20 21" fill="none" xmlns="http://www.w3.org/2000/svg">
<path d="M7.49984 13.75H3.24984C2.37484 13.75 1.6665 13.0417 1.6665 12.1667V4.58333C1.6665 3.70833 2.37484 3 3.24984 3H15.9165C16.7915 3 17.4998 3.70833 17.4998 4.58333V9.66667" stroke="#0086ff" stroke-width="1.5" stroke-linecap="round" stroke-linejoin="round"/>
<path d="M18.7407 15.0834L17.4907 13.8334L16.2407 15.0834" stroke="#0086ff" stroke-width="1.5" stroke-linecap="round" stroke-linejoin="round"/>
<path d="M17.4907 13.8334V16.6675C17.4907 17.4009 16.8907 18 16.1582 18H14.1665" stroke="#0086ff" stroke-width="1.5" stroke-linecap="round" stroke-linejoin="round"/>
<path d="M10.4258 15.0834L11.6758 16.3334L12.9258 15.0834" stroke="#0086ff" stroke-width="1.5" stroke-linecap="round" stroke-linejoin="round"/>
<path d="M11.6758 16.3333V13.4991C11.6758 12.7658 12.2758 12.1666 13.0083 12.1666H14.9999" stroke="#0086ff" stroke-width="1.5" stroke-linecap="round" stroke-linejoin="round"/>
<path d="M10.9825 7.1425C11.755 7.915 11.755 9.16833 10.9825 9.94167C10.21 10.7142 8.95671 10.7142 8.18338 9.94167C7.41088 9.16917 7.41088 7.91583 8.18338 7.1425C8.95671 6.36917 10.21 6.36917 10.9825 7.1425" stroke="#0086ff" stroke-width="1.5" stroke-linecap="round" stroke-linejoin="round"/>
<path d="M4.99984 11.3333H4.1665" stroke="#0086ff" stroke-width="1.5" stroke-linecap="round" stroke-linejoin="round"/>
<path d="M14.9998 5.50004H14.1665" stroke="#0086ff" stroke-width="1.5" stroke-linecap="round" stroke-linejoin="round"/>
</svg>
