<svg width="28" height="28" viewBox="0 0 28 28" fill="none" xmlns="http://www.w3.org/2000/svg">
<g clip-path="url(#clip0_6705_62774)">
<path d="M20.9308 7.64152C19.6342 7.04632 18.2658 6.62189 16.8599 6.37886C16.8472 6.37647 16.834 6.37818 16.8222 6.38373C16.8105 6.38928 16.8008 6.39839 16.7945 6.40977C16.6187 6.72252 16.4239 7.13044 16.2876 7.45102C14.7503 7.22086 13.2209 7.22086 11.7153 7.45102C11.5789 7.12327 11.3771 6.72252 11.2005 6.40977C11.194 6.39865 11.1842 6.38976 11.1726 6.38426C11.1609 6.37876 11.1478 6.37691 11.1351 6.37894C9.72907 6.62141 8.36058 7.04581 7.06409 7.64144C7.053 7.64618 7.04365 7.65424 7.03734 7.66452C4.4445 11.5382 3.73417 15.3166 4.08267 19.0482C4.08366 19.0573 4.08646 19.0662 4.09093 19.0742C4.0954 19.0822 4.10143 19.0893 4.10867 19.0949C5.81934 20.3513 7.47642 21.1139 9.10275 21.6194C9.1154 21.6232 9.1289 21.623 9.14144 21.6189C9.15398 21.6148 9.16496 21.607 9.17292 21.5964C9.55759 21.0711 9.9005 20.5171 10.1946 19.9346C10.1986 19.9266 10.2009 19.9179 10.2014 19.909C10.2018 19.9 10.2003 19.8911 10.197 19.8828C10.1938 19.8745 10.1888 19.8669 10.1824 19.8607C10.176 19.8544 10.1683 19.8496 10.1599 19.8465C9.61592 19.6402 9.098 19.3886 8.59975 19.1029C8.59067 19.0976 8.58304 19.0901 8.57753 19.0811C8.57203 19.0721 8.56882 19.0619 8.56819 19.0514C8.56757 19.0409 8.56954 19.0304 8.57394 19.0208C8.57834 19.0112 8.58503 19.0029 8.59342 18.9965C8.69825 18.9179 8.80317 18.8363 8.90325 18.7537C8.91215 18.7464 8.92292 18.7416 8.93434 18.7401C8.94577 18.7386 8.9574 18.7402 8.96792 18.7449C12.2411 20.2394 15.7846 20.2394 19.0191 18.7449C19.0296 18.7399 19.0414 18.738 19.0529 18.7394C19.0645 18.7408 19.0755 18.7455 19.0845 18.7529C19.1847 18.8354 19.2895 18.9179 19.3952 18.9965C19.4036 19.0028 19.4103 19.0111 19.4148 19.0206C19.4192 19.0302 19.4213 19.0407 19.4207 19.0512C19.4202 19.0617 19.4171 19.0719 19.4117 19.0809C19.4062 19.0899 19.3987 19.0974 19.3897 19.1029C18.8912 19.394 18.3691 19.6425 17.8288 19.8457C17.8204 19.8489 17.8128 19.8538 17.8065 19.8602C17.8001 19.8665 17.7952 19.8742 17.792 19.8826C17.7888 19.891 17.7874 19.8999 17.7879 19.9089C17.7884 19.9179 17.7908 19.9266 17.7949 19.9346C18.0953 20.5163 18.4382 21.0703 18.8158 21.5956C18.8235 21.6064 18.8344 21.6146 18.847 21.6189C18.8596 21.6231 18.8732 21.6233 18.8859 21.6194C20.5201 21.1139 22.1772 20.3512 23.8878 19.0949C23.8952 19.0896 23.9013 19.0827 23.9058 19.0748C23.9103 19.0668 23.9131 19.058 23.9139 19.0489C24.3309 14.7348 23.2154 10.9874 20.9568 7.66527C20.9513 7.65448 20.9421 7.64603 20.9308 7.64144V7.64152ZM10.6833 16.776C9.69792 16.776 8.88592 15.8713 8.88592 14.7602C8.88592 13.6492 9.68217 12.7444 10.6834 12.7444C11.6924 12.7444 12.4965 13.6571 12.4808 14.7603C12.4808 15.8713 11.6845 16.776 10.6833 16.776V16.776ZM17.329 16.776C16.3436 16.776 15.5316 15.8713 15.5316 14.7602C15.5316 13.6492 16.3278 12.7444 17.329 12.7444C18.338 12.7444 19.1421 13.6571 19.1263 14.7603C19.1263 15.8713 18.338 16.776 17.329 16.776V16.776Z" fill="currentColor"/>
</g>
<defs>
<clipPath id="clip0_6705_62774">
<rect width="20" height="20" fill="currentColor" transform="translate(4 4)"/>
</clipPath>
</defs>
</svg>
