<svg  viewBox="0 0 21 20" fill="none" xmlns="http://www.w3.org/2000/svg">
<path d="M10.5001 6.66492V17.1762" stroke="currentColor" stroke-width="1.25" stroke-linecap="round" stroke-linejoin="round"/>
<path d="M5.49805 7.08212H7.99909" stroke="currentColor" stroke-width="1.25" stroke-linecap="round" stroke-linejoin="round"/>
<path d="M5.49805 9.99997H7.99909" stroke="currentColor" stroke-width="1.25" stroke-linecap="round" stroke-linejoin="round"/>
<path d="M5.49805 12.9179H7.99909" stroke="currentColor" stroke-width="1.25" stroke-linecap="round" stroke-linejoin="round"/>
<path d="M13.0012 7.08212H15.5023" stroke="currentColor" stroke-width="1.25" stroke-linecap="round" stroke-linejoin="round"/>
<path d="M13.0012 9.99997H15.5023" stroke="currentColor" stroke-width="1.25" stroke-linecap="round" stroke-linejoin="round"/>
<path d="M13.0012 12.9179H15.5023" stroke="currentColor" stroke-width="1.25" stroke-linecap="round" stroke-linejoin="round"/>
<path fill-rule="evenodd" clip-rule="evenodd" d="M10.5002 17.503C9.98896 16.4799 8.9428 15.8342 7.79907 15.8358H4.24709C3.91556 15.8358 3.59762 15.7041 3.36319 15.4697C3.12877 15.2353 2.99707 14.9173 2.99707 14.5858V4.58046C2.99707 4.24894 3.12877 3.93099 3.36319 3.69656C3.59762 3.46214 3.91556 3.33044 4.24709 3.33044H7.16581C8.05014 3.33044 8.89826 3.68174 9.52358 4.30706C10.1489 4.93238 10.5002 5.7805 10.5002 6.66483C10.5002 4.8233 11.9931 3.33044 13.8346 3.33044H16.7533C17.0848 3.33044 17.4028 3.46214 17.6372 3.69656C17.8716 3.93099 18.0033 4.24894 18.0033 4.58046V14.5858C18.0033 15.275 17.4455 15.8342 16.7563 15.8358H13.2013C12.0576 15.8342 11.0114 16.4799 10.5002 17.503Z" stroke="currentColor" stroke-width="1.25" stroke-linecap="round" stroke-linejoin="round"/>
</svg>
