<svg width="4" height="14" viewBox="0 0 4 14" fill="none" xmlns="http://www.w3.org/2000/svg">
<path d="M1.9972 11.5833C1.76803 11.5833 1.58053 11.7708 1.58303 11.9999C1.58303 12.2291 1.77053 12.4166 1.9997 12.4166C2.22887 12.4166 2.41637 12.2291 2.41637 11.9999C2.41637 11.7708 2.22887 11.5833 1.9972 11.5833Z" stroke="white" stroke-width="1.5" stroke-linecap="round" stroke-linejoin="round"/>
<path d="M1.9972 6.58325C1.76803 6.58325 1.58053 6.77075 1.58303 6.99992C1.58303 7.22909 1.77053 7.41658 1.9997 7.41658C2.22887 7.41658 2.41637 7.22909 2.41637 6.99992C2.41637 6.77075 2.22887 6.58325 1.9972 6.58325Z" stroke="white" stroke-width="1.5" stroke-linecap="round" stroke-linejoin="round"/>
<path d="M1.9972 1.58325C1.76803 1.58325 1.58053 1.77075 1.58303 1.99992C1.58303 2.22909 1.77053 2.41659 1.9997 2.41659C2.22887 2.41659 2.41637 2.22909 2.41637 1.99992C2.41637 1.77075 2.22887 1.58325 1.9972 1.58325Z" stroke="white" stroke-width="1.5" stroke-linecap="round" stroke-linejoin="round"/>
</svg>
