<svg width="20" height="20" viewBox="0 0 20 20" fill="none" xmlns="http://www.w3.org/2000/svg">
<path d="M13.3333 14.4767V18.3334L15 17.5L16.6666 18.3334V14.4767" stroke="currentColor" stroke-width="1.25" stroke-miterlimit="10" stroke-linecap="round" stroke-linejoin="round"/>
<path d="M15 15C16.6108 15 17.9166 13.6941 17.9166 12.0833C17.9166 10.4725 16.6108 9.16663 15 9.16663C13.3891 9.16663 12.0833 10.4725 12.0833 12.0833C12.0833 13.6941 13.3891 15 15 15Z" stroke="currentColor" stroke-width="1.25" stroke-miterlimit="10" stroke-linecap="round" stroke-linejoin="round"/>
<path d="M10.8333 17.5H4.16667C3.24583 17.5 2.5 16.7542 2.5 15.8333V4.16667C2.5 3.24583 3.24583 2.5 4.16667 2.5H15C15.9208 2.5 16.6667 3.24583 16.6667 4.16667V6.66667" stroke="currentColor" stroke-width="1.25" stroke-linecap="round" stroke-linejoin="round"/>
<path d="M5.83331 5.83337H13.3333" stroke="currentColor" stroke-width="1.25" stroke-linecap="round" stroke-linejoin="round"/>
<path d="M5.83331 9.16663H9.16665" stroke="currentColor" stroke-width="1.25" stroke-linecap="round" stroke-linejoin="round"/>
<path d="M5.83331 12.5H8.33331" stroke="currentColor" stroke-width="1.25" stroke-linecap="round" stroke-linejoin="round"/>
</svg>
