<svg width="24" height="24" viewBox="0 0 24 24" fill="none" xmlns="http://www.w3.org/2000/svg">
  <path fill-rule="evenodd" clip-rule="evenodd" d="M8.99902 15.0013L12.1503 14.6121C12.3717 14.585 12.5777 14.4846 12.7356 14.327L20.3698 6.69779C21.2151 5.85204 21.2151 4.48127 20.3698 3.63552V3.63552C19.524 2.7902 18.1532 2.7902 17.3075 3.63552L9.74433 11.1987C9.59116 11.3518 9.49181 11.5505 9.46122 11.7649L8.99902 15.0013Z" stroke="currentColor" stroke-width="1.5" stroke-linecap="round" stroke-linejoin="round"/>
  <path d="M13.0007 3.99667H6.99825C4.78819 3.99667 2.99658 5.78828 2.99658 7.99834V17.0021C2.99658 19.2121 4.78819 21.0038 6.99825 21.0038H16.002C18.2121 21.0038 20.0037 19.2121 20.0037 17.0021V10.9996" stroke="currentColor" stroke-width="1.5" stroke-linecap="round" stroke-linejoin="round"/>
</svg>
