<svg width="24" height="24" viewBox="0 0 24 24" fill="none" xmlns="http://www.w3.org/2000/svg">
  <path d="M5.39452 9.86385L5.98905 6.34435H5.42887C5.13195 6.34435 4.91385 6.06204 4.99174 5.77345L5.52174 3.81089C5.57503 3.61344 5.75434 3.47614 5.95887 3.47614H13.0222C13.2267 3.47614 13.406 3.61344 13.4593 3.81089L13.9893 5.77345C14.026 5.90943 13.9975 6.05492 13.9117 6.1668C13.8259 6.27869 13.693 6.34435 13.5522 6.34435H13.1244L13.7366 7.87863C14.0165 8.57274 14.2265 9.09956 14.5546 10.3853H15.1654V7.54144C15.1654 7.29136 15.3681 7.08861 15.6182 7.08861H16.0162V6.80183C16.0162 6.34988 16.1995 5.90744 16.5188 5.58838L16.8098 5.29718C16.9867 5.1203 17.2734 5.12052 17.4503 5.29696C17.6272 5.47385 17.6272 5.76063 17.4505 5.93752L17.1591 6.22894C17.0083 6.37951 16.9219 6.58846 16.9219 6.80183V7.08861H17.3216C17.5717 7.08861 17.7745 7.29136 17.7745 7.54144V10.4818C19.2538 10.6818 20.6222 11.1862 21.4729 11.8805C21.7969 12.1409 21.9826 12.523 21.9826 12.9283V13.7285C22.2587 13.9105 22.5172 14.1218 22.7463 14.3675C22.9168 14.5504 22.9068 14.8369 22.724 15.0076C22.5406 15.1785 22.2545 15.1677 22.0839 14.9853C21.4729 14.3302 20.6472 13.9518 19.7358 13.9395C17.9341 13.9173 16.6573 15.2425 16.4429 16.8092C16.3702 17.3423 15.8984 17.7597 15.3688 17.7597H11.227C10.3047 19.406 8.54509 20.5227 6.52756 20.5227C3.55255 20.5227 1.13207 18.1069 1.13207 15.1376C1.13207 12.5512 2.96202 10.3861 5.39452 9.86385ZM13.7487 10.9005C13.3869 9.43368 13.1862 8.93702 12.8853 8.19459L12.1477 6.34435H8.93764V10.3072L8.93897 10.3079C10.5431 11.1118 11.6545 12.6857 11.8737 14.4765H13.7487V10.9005ZM6.90765 6.34435L6.33409 9.74036C6.39821 9.73749 6.46189 9.73616 6.52491 9.73616C7.0483 9.73616 7.55339 9.81261 8.03198 9.95124V6.34435H6.90765ZM12.6755 4.3818H6.30557L6.02012 5.43869C8.8677 5.43869 9.90429 5.43869 12.9609 5.43869L12.6755 4.3818ZM16.8688 10.3964V7.99427H16.071V10.3853C16.3147 10.3868 16.5283 10.3805 16.8688 10.3964ZM11.6325 16.8541H15.3688C15.448 16.8541 15.534 16.7727 15.5457 16.6867C15.8241 14.6486 17.4981 13.0298 19.6988 13.0298C20.1719 13.0298 20.6349 13.1089 21.0769 13.2653V12.9283C21.0769 12.7985 21.0144 12.6738 20.9027 12.584C20.1006 11.9296 18.6783 11.4608 17.1994 11.3308C16.5346 11.2687 14.6082 11.291 14.6544 11.291V14.9293C14.6544 15.1794 14.4516 15.3822 14.2016 15.3822H11.9076C11.8408 16.0184 11.8092 16.3213 11.6325 16.8541ZM6.52756 19.6171C9.01411 19.6171 11.0072 17.5881 11.0072 15.1376C11.0072 12.6883 9.02096 10.6476 6.52756 10.6476C4.09125 10.6476 2.03773 12.6317 2.03773 15.1376C2.03773 17.6076 4.05181 19.6171 6.52756 19.6171Z" fill="currentColor"/>
  <path d="M19.7711 14.7507C21.3611 14.7507 22.6548 16.0444 22.6548 17.6344C22.6548 19.2277 21.3611 20.5239 19.7711 20.5239C18.1809 20.5239 16.8872 19.2277 16.8872 17.6344C16.8872 16.0444 18.1809 14.7507 19.7711 14.7507ZM19.7711 19.6182C20.8618 19.6182 21.7491 18.7283 21.7491 17.6344C21.7491 16.5437 20.8618 15.6564 19.7711 15.6564C18.6804 15.6564 17.7928 16.5437 17.7928 17.6344C17.7928 18.7283 18.6804 19.6182 19.7711 19.6182Z" fill="currentColor"/>
  <path d="M6.50143 9.52637C9.53319 9.52637 12 11.9908 12 15.0197C12 18.0548 9.53319 20.5239 6.50143 20.5239C3.46925 20.5239 1.00244 18.0548 1.00244 15.0197C1.00244 11.9908 3.46925 9.52637 6.50143 9.52637ZM6.50143 18.7987C8.58121 18.7987 10.2731 17.1034 10.2731 15.0197C10.2731 12.9419 8.58121 11.2516 6.50143 11.2516C4.42166 11.2516 2.72933 12.9419 2.72933 15.0197C2.72933 17.1034 4.42166 18.7987 6.50143 18.7987Z" fill="currentColor"/>
</svg>
