<svg width="24" height="24" viewBox="0 0 24 24" fill="none" xmlns="http://www.w3.org/2000/svg">
<path d="M18.4758 9.86385L17.8813 6.34435H18.4415C18.7384 6.34435 18.9565 6.06204 18.8786 5.77345L18.3486 3.81089C18.2953 3.61344 18.116 3.47614 17.9115 3.47614H10.8482C10.6437 3.47614 10.4643 3.61344 10.411 3.81089L9.88105 5.77345C9.84435 5.90943 9.87287 6.05492 9.95866 6.1668C10.0445 6.27869 10.1773 6.34435 10.3182 6.34435H10.7459L10.1338 7.87863C9.85386 8.57274 9.64389 9.09956 9.31579 10.3853H8.70498V7.54144C8.70498 7.29136 8.50222 7.08861 8.25215 7.08861H7.85415V6.80183C7.85415 6.34988 7.67085 5.90744 7.35157 5.58838L7.06059 5.29718C6.88371 5.1203 6.59693 5.12052 6.42004 5.29696C6.24316 5.47385 6.24315 5.76063 6.41982 5.93752L6.71124 6.22894C6.86204 6.37951 6.94849 6.58846 6.94849 6.80183V7.08861H6.54873C6.29865 7.08861 6.0959 7.29136 6.0959 7.54144V10.4818C4.6166 10.6818 3.24816 11.1862 2.39741 11.8805C2.07349 12.1409 1.88776 12.523 1.88776 12.9283V13.7285C1.61168 13.9105 1.3532 14.1218 1.12405 14.3675C0.953576 14.5504 0.963526 14.8369 1.14638 15.0076C1.32979 15.1785 1.61586 15.1677 1.78649 14.9853C2.39744 14.3302 3.22319 13.9518 4.13458 13.9395C5.93626 13.9173 7.21307 15.2425 7.42741 16.8092C7.50016 17.3423 7.972 17.7597 8.50156 17.7597H12.6433C13.5657 19.406 15.3253 20.5227 17.3428 20.5227C20.3178 20.5227 22.7383 18.1069 22.7383 15.1376C22.7383 12.5512 20.9083 10.3861 18.4758 9.86385ZM10.1216 10.9005C10.4834 9.43368 10.6841 8.93702 10.985 8.19459L11.7227 6.34435H14.9327V10.3072L14.9314 10.3079C13.3272 11.1118 12.2159 12.6857 11.9966 14.4765H10.1216V10.9005ZM16.9627 6.34435L17.5363 9.74036C17.4721 9.73749 17.4085 9.73616 17.3455 9.73616C16.8221 9.73616 16.317 9.81261 15.8384 9.95124V6.34435H16.9627ZM11.1949 4.3818H17.5648L17.8502 5.43869C15.0027 5.43869 13.9661 5.43869 10.9094 5.43869L11.1949 4.3818ZM7.00156 10.3964V7.99427H7.79932V10.3853C7.55561 10.3868 7.3421 10.3805 7.00156 10.3964ZM12.2378 16.8541H8.50156C8.4224 16.8541 8.33639 16.7727 8.32467 16.6867C8.04627 14.6486 6.37228 13.0298 4.17159 13.0298C3.69842 13.0298 3.23542 13.1089 2.79342 13.2653V12.9283C2.79342 12.7985 2.85599 12.6738 2.96765 12.584C3.76978 11.9296 5.19209 11.4608 6.67092 11.3308C7.33575 11.2687 9.26216 11.291 9.21596 11.291V14.9293C9.21596 15.1794 9.41871 15.3822 9.66879 15.3822H11.9627C12.0296 16.0184 12.0611 16.3213 12.2378 16.8541ZM17.3428 19.6171C14.8563 19.6171 12.8631 17.5881 12.8631 15.1376C12.8631 12.6883 14.8494 10.6476 17.3428 10.6476C19.7791 10.6476 21.8326 12.6317 21.8326 15.1376C21.8326 17.6076 19.8186 19.6171 17.3428 19.6171Z" fill="#9CA3AF"/>
<mask id="path-2-inside-1_5723_3071" fill="white">
<path d="M4.09927 14.7507C2.50928 14.7507 1.21558 16.0444 1.21558 17.6344C1.21558 19.2277 2.50928 20.5239 4.09927 20.5239C5.68949 20.5239 6.98319 19.2277 6.98319 17.6344C6.98319 16.0444 5.68949 14.7507 4.09927 14.7507ZM4.09927 19.6182C3.00855 19.6182 2.12124 18.7283 2.12124 17.6344C2.12124 16.5437 3.00855 15.6564 4.09927 15.6564C5.19 15.6564 6.07753 16.5437 6.07753 17.6344C6.07753 18.7283 5.19 19.6182 4.09927 19.6182Z"/>
</mask>
<path d="M4.09927 14.7507C2.50928 14.7507 1.21558 16.0444 1.21558 17.6344C1.21558 19.2277 2.50928 20.5239 4.09927 20.5239C5.68949 20.5239 6.98319 19.2277 6.98319 17.6344C6.98319 16.0444 5.68949 14.7507 4.09927 14.7507ZM4.09927 19.6182C3.00855 19.6182 2.12124 18.7283 2.12124 17.6344C2.12124 16.5437 3.00855 15.6564 4.09927 15.6564C5.19 15.6564 6.07753 16.5437 6.07753 17.6344C6.07753 18.7283 5.19 19.6182 4.09927 19.6182Z" fill="#9CA3AF"/>
<path d="M4.09927 13.7507C1.957 13.7507 0.215576 15.4922 0.215576 17.6344H2.21558C2.21558 16.5967 3.06157 15.7507 4.09927 15.7507V13.7507ZM0.215576 17.6344C0.215576 19.7782 1.95515 21.5239 4.09927 21.5239V19.5239C3.06341 19.5239 2.21558 18.6773 2.21558 17.6344H0.215576ZM4.09927 21.5239C6.24356 21.5239 7.98319 19.7782 7.98319 17.6344H5.98319C5.98319 18.6772 5.13541 19.5239 4.09927 19.5239V21.5239ZM7.98319 17.6344C7.98319 15.4921 6.24172 13.7507 4.09927 13.7507V15.7507C5.13725 15.7507 5.98319 16.5968 5.98319 17.6344H7.98319ZM4.09927 18.6182C3.56359 18.6182 3.12124 18.1787 3.12124 17.6344H1.12124C1.12124 19.2778 2.4535 20.6182 4.09927 20.6182V18.6182ZM3.12124 17.6344C3.12124 17.096 3.56083 16.6564 4.09927 16.6564V14.6564C2.45626 14.6564 1.12124 15.9914 1.12124 17.6344H3.12124ZM4.09927 16.6564C4.63786 16.6564 5.07753 17.0961 5.07753 17.6344H7.07753C7.07753 15.9913 5.74214 14.6564 4.09927 14.6564V16.6564ZM5.07753 17.6344C5.07753 18.1786 4.6351 18.6182 4.09927 18.6182V20.6182C5.7449 20.6182 7.07753 19.2779 7.07753 17.6344H5.07753Z" fill="#9CA3AF" mask="url(#path-2-inside-1_5723_3071)"/>
<path d="M12.3704 15.0197C12.3704 12.2674 14.6129 10.0264 17.3689 10.0264C20.1254 10.0264 22.3679 12.2674 22.3679 15.0197C22.3679 17.7791 20.1245 20.0239 17.3689 20.0239C14.6138 20.0239 12.3704 17.7792 12.3704 15.0197ZM13.0973 15.0197C13.0973 17.3786 15.0121 19.2987 17.3689 19.2987C19.7257 19.2987 21.641 17.3786 21.641 15.0197C21.641 12.6652 19.7243 10.7516 17.3689 10.7516C15.0135 10.7516 13.0973 12.6653 13.0973 15.0197Z" fill="#9CA3AF" stroke="#9CA3AF"/>
</svg>
