<svg width="159" height="159" viewBox="0 0 159 159" fill="none" xmlns="http://www.w3.org/2000/svg">
<path d="M158.78 79.39C158.78 35.5441 123.236 0 79.39 0C35.5441 0 0 35.5441 0 79.39C0 123.236 35.5441 158.78 79.39 158.78C123.236 158.78 158.78 123.236 158.78 79.39Z" fill="url(#paint0_linear_4625_40646)"/>
<g style="mix-blend-mode:multiply" opacity="0.25">
<g style="mix-blend-mode:multiply" opacity="0.25">
<path d="M137.71 90.54C137.748 91.8781 137.664 93.2169 137.46 94.54C137.46 94.73 137.38 94.91 137.33 95.1C137.191 95.5656 137.017 96.0202 136.81 96.46C136.76 96.56 136.71 96.66 136.65 96.76C136.59 96.86 136.49 97.03 136.41 97.16L136.16 97.49C136.12 97.5341 136.084 97.5809 136.05 97.63L135.84 97.88C135.775 97.9582 135.705 98.0317 135.63 98.1C131.85 102.02 124.81 100.1 120.3 103.41C116.87 105.94 115.68 109.63 115.42 113.64C115.24 116.48 114.64 119.64 112.12 121.46C109.31 123.46 105.27 123.13 102.04 124.1C97.7401 125.4 95.7201 128.18 93.5001 131.56C93.0734 132.328 92.503 133.007 91.8201 133.56C89.7323 135.087 87.2516 135.986 84.6701 136.15C83.1076 136.274 81.5367 136.244 79.9801 136.06C79.3401 136 78.6901 135.9 78.0501 135.79C73.8054 134.97 69.7003 133.546 65.8601 131.56C58.3512 127.654 51.8638 122.04 46.9201 115.17C45.208 112.815 43.6642 110.342 42.3001 107.77C39.7338 102.87 37.9457 97.6001 37.0001 92.15C36.0606 86.6926 35.569 81.1675 35.5301 75.63C35.4935 71.8711 35.6504 68.1128 36.0001 64.37C36.1881 62.3205 36.4953 60.2837 36.9201 58.27C37.0001 57.87 37.0901 57.47 37.1901 57.08C37.4701 55.89 37.7901 54.72 38.1901 53.57C39.2637 50.1703 40.7587 46.9183 42.6401 43.89C43.0801 43.19 43.5301 42.51 44.0101 41.89C44.4901 41.27 44.9601 40.6 45.4701 39.98C45.9801 39.36 46.4701 38.74 47.0501 38.15L47.9001 37.26C49.9507 35.164 52.228 33.3025 54.6901 31.71C65.0323 25.0962 77.562 22.8187 89.5701 25.37C97.0192 27.0721 103.875 30.7432 109.42 36C113.179 39.51 116.151 43.7772 118.14 48.52C118.25 48.8 118.35 49.08 118.45 49.36C118.55 49.64 118.65 49.93 118.74 50.21C118.83 50.49 118.91 50.79 119 51.09C119.17 51.72 119.32 52.37 119.46 53.02C119.51 53.28 119.56 53.53 119.6 53.79C119.64 54.05 119.72 54.49 119.79 54.85C119.86 55.21 119.88 55.46 119.92 55.76L120.04 56.76C120.32 59.05 120.48 61.44 120.65 63.85V64.08C120.8 66.24 120.96 68.41 121.21 70.53C122.12 78.16 124.21 85.17 131.67 88.87C133.635 89.5417 135.639 90.096 137.67 90.53C137.67 90.53 137.7 90.53 137.71 90.54Z" fill="#0C0E20"/>
</g>
<g style="mix-blend-mode:multiply" opacity="0.25">
<path d="M120.65 63.82C120.48 61.41 120.32 59.02 120.04 56.73C120.33 59 120.49 61.41 120.65 63.82Z" fill="#0C0E20"/>
</g>
<g style="mix-blend-mode:multiply" opacity="0.25">
<path d="M137.33 95.13C137.204 95.6002 137.03 96.056 136.81 96.49C137.017 96.0503 137.191 95.5957 137.33 95.13Z" fill="#0C0E20"/>
</g>
<g style="mix-blend-mode:multiply" opacity="0.25">
<path d="M42.6199 43.89C40.7385 46.9184 39.2435 50.1703 38.1699 53.57C39.2393 50.1687 40.7345 46.9162 42.6199 43.89Z" fill="#0C0E20"/>
</g>
<g style="mix-blend-mode:multiply" opacity="0.25">
<path d="M45.4502 39.9299C44.9402 40.5499 44.4502 41.1899 43.9902 41.8399C44.4502 41.1899 44.9402 40.5499 45.4502 39.9299Z" fill="#0C0E20"/>
</g>
<g style="mix-blend-mode:multiply" opacity="0.25">
<path d="M46.9999 38.1C46.4599 38.69 45.9299 39.3 45.4199 39.93C45.9999 39.3 46.4799 38.69 46.9999 38.1Z" fill="#0C0E20"/>
</g>
<g style="mix-blend-mode:multiply" opacity="0.25">
<path d="M121.23 70.4999C120.98 68.3799 120.82 66.2099 120.67 64.0499L121.23 70.4999Z" fill="#0C0E20"/>
</g>
<g style="mix-blend-mode:multiply" opacity="0.25">
<path d="M78.0002 135.85C73.7427 135.042 69.6259 133.617 65.7802 131.62C58.1973 127.664 51.659 121.969 46.7002 115C46.7602 115.07 46.8202 115.15 46.8902 115.22C51.8339 122.09 58.3213 127.704 65.8302 131.61C69.6636 133.597 73.7619 135.025 78.0002 135.85Z" fill="#0C0E20"/>
</g>
<g style="mix-blend-mode:multiply" opacity="0.25">
<path d="M137.46 94.5699C137.664 93.2469 137.748 91.9081 137.71 90.5699C137.826 91.9083 137.742 93.2565 137.46 94.5699Z" fill="#0C0E20"/>
</g>
</g>
<path d="M31.4733 89.8518C29.9362 80.6744 29.6 71.336 30.4733 62.0718C31.7133 48.8118 37.5333 36.9218 49.1433 29.3618C59.4882 22.7454 72.0221 20.4678 84.0333 23.0218C96.2733 25.6918 107.973 34.7218 112.613 46.2018C117.613 58.6018 111.343 79.2018 126.163 86.5618C128.127 87.2377 130.131 87.7888 132.163 88.2118C132.163 90.7318 132.243 93.1118 130.583 95.2818C126.963 100.022 119.453 97.7018 114.723 101.202C111.303 103.732 110.103 107.422 109.853 111.422C109.663 114.272 109.063 117.422 106.553 119.252C103.733 121.252 99.6933 120.922 96.4733 121.892C92.1633 123.182 90.1433 125.982 87.9233 129.352C87.4907 130.116 86.9212 130.794 86.2433 131.352C79.2433 136.692 67.2433 132.932 60.2433 129.352C50.1414 124.008 41.9321 115.679 36.7333 105.502C34.1732 100.592 32.3984 95.3112 31.4733 89.8518V89.8518Z" fill="#FAF9F6"/>
<path d="M53.8402 73.96C61.4894 73.96 67.6902 67.7592 67.6902 60.11C67.6902 52.4609 61.4894 46.26 53.8402 46.26C46.1911 46.26 39.9902 52.4609 39.9902 60.11C39.9902 67.7592 46.1911 73.96 53.8402 73.96Z" fill="#E5E5E5"/>
<path d="M88.4901 73.96C96.1393 73.96 102.34 67.7592 102.34 60.11C102.34 52.4609 96.1393 46.26 88.4901 46.26C80.841 46.26 74.6401 52.4609 74.6401 60.11C74.6401 67.7592 80.841 73.96 88.4901 73.96Z" fill="#E5E5E5"/>
<path d="M53.8402 71.6399C61.4894 71.6399 67.6902 65.4391 67.6902 57.7899C67.6902 50.1408 61.4894 43.9399 53.8402 43.9399C46.1911 43.9399 39.9902 50.1408 39.9902 57.7899C39.9902 65.4391 46.1911 71.6399 53.8402 71.6399Z" fill="#28404E"/>
<path d="M88.4901 71.6399C96.1393 71.6399 102.34 65.4391 102.34 57.7899C102.34 50.1408 96.1393 43.9399 88.4901 43.9399C80.841 43.9399 74.6401 50.1408 74.6401 57.7899C74.6401 65.4391 80.841 71.6399 88.4901 71.6399Z" fill="#28404E"/>
<path d="M53.8401 50.0701C51.8421 50.142 49.9498 50.9863 48.5617 52.4253C47.1736 53.8643 46.3979 55.7857 46.3979 57.7851C46.3979 59.7844 47.1736 61.7058 48.5617 63.1448C49.9498 64.5838 51.8421 65.4281 53.8401 65.5001V50.0701Z" fill="#4BF2BD"/>
<path d="M88.5503 50.0801C86.5055 50.0801 84.5444 50.8924 83.0985 52.3383C81.6526 53.7842 80.8403 55.7453 80.8403 57.7901C80.8403 59.8349 81.6526 61.796 83.0985 63.2419C84.5444 64.6878 86.5055 65.5001 88.5503 65.5001V50.0801Z" fill="#60E6CE"/>
<path d="M115.66 68.7199C115.201 66.7199 114.901 64.687 114.76 62.6399C114.76 62.6399 114.76 62.3399 114.76 62.1899C114.76 62.0399 114.76 62.0999 114.76 62.0599C114.76 62.0199 114.76 61.7699 114.76 61.6899C114.765 61.6434 114.765 61.5965 114.76 61.5499C114.534 58.1613 113.83 54.8217 112.67 51.6299C107.91 40.1199 96.22 31.0899 84 28.4199C71.992 25.8632 59.4602 28.141 49.12 34.7599C37.48 42.3199 31.67 54.2099 30.43 67.4699C30.24 69.5499 30.11 71.6799 30.03 73.8399H30C29.9649 70.0813 30.1184 66.3232 30.46 62.5799C31.7 49.3299 37.46 37.4299 49.12 29.8699C59.4608 23.2527 71.9906 20.9716 84 23.5199C96.25 26.1899 107.94 35.2199 112.59 46.6999C114.37 51.0899 114.72 56.5099 115.1 62.0099L115.66 68.7199Z" fill="#E5E5E5"/>
<path d="M129.66 96.71C125.81 100.2 119.04 98.45 114.66 101.71C111.24 104.26 110.04 107.93 109.79 111.95C109.61 114.79 109 117.95 106.49 119.77C103.67 121.77 99.6401 121.43 96.4101 122.41C92.1001 123.7 90.0801 126.5 87.8601 129.87C87.4274 130.634 86.858 131.312 86.1801 131.87C79.1801 137.21 67.1801 133.46 60.1801 129.87C52.591 125.919 46.0457 120.227 41.0801 113.26C45.5122 118.377 50.8733 122.608 56.8801 125.73C63.8301 129.31 75.8801 133.07 82.8801 127.73C83.5606 127.175 84.1305 126.496 84.5601 125.73C86.7801 122.36 88.8101 119.57 93.1001 118.27C96.3301 117.27 100.37 117.65 103.18 115.63C105.7 113.83 106.3 110.63 106.49 107.81C106.74 103.81 107.93 100.12 111.36 97.58C114.79 95.04 119.36 95.58 123.15 94.35C126.657 93.4586 129.801 91.5022 132.15 88.75C132.15 88.75 132.78 94.22 129.66 96.71Z" fill="#E5E5E5"/>
<path d="M74.3299 25.1999C77.3803 25.2084 80.4209 25.5437 83.3999 26.1999C95.1599 28.7599 105.87 37.4199 110.05 47.7499C111.65 51.6899 112.05 56.7499 112.37 62.0399C113.08 72.3499 113.89 84.0399 124.9 89.5099C126.368 90.0483 127.863 90.5089 129.38 90.8899C129.411 92.0597 129.06 93.2077 128.38 94.1599C127.05 95.8999 124.58 96.2599 121.73 96.6899C118.88 97.1199 115.73 97.5699 113.06 99.5499C109.4 102.26 107.45 106.26 107.06 111.78C106.87 114.85 106.2 116.64 104.89 117.57C103.58 118.5 101.73 118.74 99.7299 119.03C98.3372 119.185 96.9594 119.453 95.6099 119.83C90.1299 121.47 87.6099 125.31 85.6099 128.41C85.338 128.898 84.9826 129.335 84.5599 129.7C82.4076 131.198 79.8191 131.94 77.1999 131.81C72.6599 131.81 66.7799 130.18 61.4799 127.45C51.8657 122.373 44.0456 114.462 39.0799 104.79C36.644 100.122 34.9568 95.1012 34.0799 89.9099C32.5694 80.972 32.2332 71.875 33.0799 62.8499C33.9499 53.4599 37.6899 40.5199 50.5199 32.1599C57.6248 27.6044 65.89 25.1883 74.3299 25.1999ZM74.3299 22.4899C65.3868 22.4742 56.6282 25.0327 49.0999 29.8599C37.4899 37.4199 31.6699 49.3099 30.4299 62.5699C29.5566 71.8341 29.8927 81.1725 31.4299 90.3499C32.3581 95.8099 34.1363 101.091 36.6999 106C41.9174 116.165 50.1405 124.475 60.2499 129.8C64.6999 132.1 71.2499 134.47 77.2499 134.47C80.4629 134.602 83.6286 133.663 86.2499 131.8C86.9278 131.242 87.4973 130.564 87.9299 129.8C90.1499 126.43 92.1699 123.63 96.4799 122.34C99.6999 121.34 103.74 121.71 106.56 119.7C109.07 117.9 109.67 114.7 109.86 111.87C110.11 107.87 111.31 104.18 114.73 101.65C119.46 98.1499 126.97 100.47 130.59 95.7299C132.25 93.5599 132.14 91.1799 132.17 88.6599C130.14 88.2205 128.137 87.6662 126.17 86.9999C111.35 79.6099 117.64 58.9999 112.62 46.6399C107.92 35.2199 96.2199 26.1899 83.9999 23.5199C80.8282 22.8429 77.593 22.5076 74.3499 22.5199L74.3299 22.4899Z" fill="#28404E"/>
<defs>
<linearGradient id="paint0_linear_4625_40646" x1="79.39" y1="158.78" x2="79.39" y2="0" gradientUnits="userSpaceOnUse">
<stop stop-color="#06EA96"/>
<stop offset="1" stop-color="#2BDECC"/>
</linearGradient>
</defs>
</svg>
