<svg width="28" height="28" viewBox="0 0 28 28" fill="none" xmlns="http://www.w3.org/2000/svg">
<g clip-path="url(#clip0_6705_62780)">
<path d="M14 4.24756C8.475 4.24756 4 8.72506 4 14.2476C4 18.6667 6.865 22.4142 10.8375 23.7351C11.3375 23.8292 11.5208 23.5201 11.5208 23.2542C11.5208 23.0167 11.5125 22.3876 11.5083 21.5542C8.72667 22.1576 8.14 20.2126 8.14 20.2126C7.685 19.0584 7.0275 18.7501 7.0275 18.7501C6.12167 18.1301 7.0975 18.1426 7.0975 18.1426C8.10167 18.2126 8.62917 19.1726 8.62917 19.1726C9.52083 20.7017 10.97 20.2601 11.5417 20.0042C11.6317 19.3576 11.8892 18.9167 12.175 18.6667C9.95417 18.4167 7.62 17.5567 7.62 13.7251C7.62 12.6334 8.0075 11.7417 8.64917 11.0417C8.53667 10.7892 8.19917 9.77256 8.73667 8.39506C8.73667 8.39506 9.57417 8.12673 11.4867 9.42006C12.2867 9.19756 13.1367 9.08756 13.9867 9.08256C14.8367 9.08756 15.6867 9.19756 16.4867 9.42006C18.3867 8.12673 19.2242 8.39506 19.2242 8.39506C19.7617 9.77256 19.4242 10.7892 19.3242 11.0417C19.9617 11.7417 20.3492 12.6334 20.3492 13.7251C20.3492 17.5667 18.0117 18.4126 15.7867 18.6584C16.1367 18.9584 16.4617 19.5717 16.4617 20.5084C16.4617 21.8467 16.4492 22.9217 16.4492 23.2467C16.4492 23.5092 16.6242 23.8217 17.1367 23.7217C21.1375 22.4101 24 18.6601 24 14.2476C24 8.72506 19.5225 4.24756 14 4.24756" fill="currentColor"/>
</g>
<defs>
<clipPath id="clip0_6705_62780">
<rect width="20" height="20" fill="currentColor" transform="translate(4 4)"/>
</clipPath>
</defs>
</svg>
