<svg viewBox="0 0 21 20" fill="none" xmlns="http://www.w3.org/2000/svg">
<path d="M8.85833 4.16667H4.25" stroke="currentColor" stroke-width="1.25" stroke-linecap="round" stroke-linejoin="round"/>
<path d="M11.701 2.98816C12.3519 3.63903 12.3519 4.69431 11.701 5.34518C11.0501 5.99605 9.99487 5.99605 9.34399 5.34518C8.69312 4.69431 8.69312 3.63903 9.34399 2.98816C9.99486 2.33728 11.0501 2.33728 11.701 2.98816" stroke="currentColor" stroke-width="1.25" stroke-linecap="round" stroke-linejoin="round"/>
<path d="M16.75 4.16667H12.1917" stroke="currentColor" stroke-width="1.25" stroke-linecap="round" stroke-linejoin="round"/>
<path d="M4.25 17.2917H16.75" stroke="currentColor" stroke-width="1.25" stroke-linecap="round" stroke-linejoin="round"/>
<path d="M10.525 5.83337L10.5 17.2917" stroke="currentColor" stroke-width="1.25" stroke-linecap="round" stroke-linejoin="round"/>
<path fill-rule="evenodd" clip-rule="evenodd" d="M7.84505 11.0225C7.94005 11.1725 7.99422 11.3483 7.97755 11.525C7.83838 13.0066 6.59172 14.1666 5.07338 14.1666C3.55588 14.1666 2.30922 13.0075 2.16922 11.5258C2.15255 11.3491 2.20755 11.17 2.30338 11.02L5.07338 6.66663C5.07338 6.66663 7.25588 10.0958 7.84505 11.0225V11.0225Z" stroke="currentColor" stroke-width="1.25" stroke-linecap="round" stroke-linejoin="round"/>
<path d="M7.95007 11.25H2.20007" stroke="currentColor" stroke-width="1.25" stroke-linecap="round" stroke-linejoin="round"/>
<path fill-rule="evenodd" clip-rule="evenodd" d="M18.7009 11.0225C18.7959 11.1725 18.8501 11.3483 18.8334 11.525C18.6942 13.0066 17.4476 14.1666 15.9292 14.1666C14.4117 14.1666 13.1651 13.0075 13.0251 11.5258C13.0084 11.3491 13.0634 11.17 13.1592 11.02L15.9292 6.66663C15.9292 6.66663 18.1109 10.0958 18.7009 11.0225Z" stroke="currentColor" stroke-width="1.25" stroke-linecap="round" stroke-linejoin="round"/>
<path d="M18.8084 11.25H13.05" stroke="currentColor" stroke-width="1.25" stroke-linecap="round" stroke-linejoin="round"/>
</svg>
