<svg width="188" height="187" viewBox="0 0 188 187" fill="none" xmlns="http://www.w3.org/2000/svg">
<g clip-path="url(#clip0_6552_62033)">
<path d="M93.995 2.14301e-06C106.273 -0.00262676 118.432 2.41349 129.776 7.11038C141.121 11.8073 151.429 18.6929 160.112 27.374C168.795 36.0552 175.683 46.3618 180.382 57.7052C185.081 69.0486 187.5 81.2067 187.5 93.485V93.485C187.501 105.763 185.084 117.922 180.386 129.266C175.688 140.609 168.801 150.917 160.119 159.599C151.437 168.281 141.129 175.168 129.786 179.866C118.442 184.564 106.283 186.981 94.005 186.98V186.98C69.2103 186.983 45.43 177.136 27.8947 159.607C10.3594 142.077 0.505309 118.3 0.500001 93.505V93.505C0.498686 81.2271 2.9157 69.0691 7.61305 57.7253C12.3104 46.3814 19.1961 36.0739 27.877 27.3911C36.5579 18.7084 46.8639 11.8205 58.2068 7.12071C69.5496 2.42094 81.7071 0.00131635 93.985 2.14301e-06H93.995Z" fill="url(#paint0_linear_6552_62033)"/>
<g opacity="0.25">
<path opacity="0.25" d="M160.408 105.715C160.447 107.238 160.35 108.762 160.118 110.269C159.913 111.5 159.412 112.663 158.657 113.657C157.902 114.651 156.916 115.446 155.785 115.973C153.671 116.902 151.419 117.48 149.119 117.685C146.177 118.135 143.044 118.565 140.582 120.377C138.287 122.128 136.639 124.592 135.899 127.382C135.078 130.165 135.188 133.087 134.458 135.869C134.034 137.727 133.036 139.404 131.605 140.663C129.904 141.902 127.904 142.669 125.811 142.885C123.342 143.105 120.907 143.612 118.555 144.396C116.449 145.29 114.578 146.661 113.09 148.399C112.21 149.4 111.419 150.471 110.628 151.552C109.949 152.636 109.154 153.642 108.257 154.554C106.423 156.075 104.22 157.083 101.871 157.476C98.7529 158.033 95.5571 157.992 92.4538 157.356C87.6357 156.414 82.9756 154.794 78.6128 152.542C70.0425 148.094 62.6376 141.694 56.9954 133.857C55.0452 131.173 53.2829 128.358 51.7212 125.431C48.816 119.844 46.7905 113.841 45.7164 107.636C44.6448 101.401 44.0858 95.0881 44.045 88.7613C43.9809 84.4589 44.1446 80.1561 44.5354 75.871C44.7338 73.5383 45.0679 71.2192 45.5362 68.9254C45.6363 68.475 45.7364 68.0047 45.8565 67.5643C46.1581 66.2098 46.5357 64.8733 46.9874 63.5611C48.1906 59.6975 49.8716 55.9992 51.9914 52.5523C52.4735 51.7693 52.9945 51.0111 53.5526 50.2804C54.0931 49.5699 54.6335 48.8093 55.204 48.0987C55.7744 47.3881 56.3549 46.6976 57.0054 46.017L58.0062 45.0162C60.346 42.6431 62.9404 40.5354 65.7424 38.7312C77.5503 31.1625 91.8678 28.5587 105.584 31.4854C114.086 33.4149 121.911 37.6018 128.233 43.6051C137.48 52.3621 140.162 62.9906 141.023 75.3706V75.6308C141.193 78.1528 141.373 80.5647 141.663 82.9867C142.214 87.6304 143.155 92.3942 145.566 96.4675C146.854 98.6843 148.577 100.618 150.631 102.152C152.883 103.645 155.406 104.682 158.056 105.205C158.837 105.405 159.618 105.585 160.408 105.755V105.715Z" fill="#111322"/>
<path opacity="0.25" d="M140.973 75.2805C140.783 72.5383 140.593 69.8261 140.272 67.204C140.613 69.7961 140.793 72.5383 140.973 75.2805Z" fill="#111322"/>
<path opacity="0.25" d="M160.008 110.949C159.864 111.485 159.666 112.005 159.418 112.5C159.654 111.999 159.852 111.481 160.008 110.949V110.949Z" fill="#111322"/>
<path opacity="0.25" d="M52.0914 52.5823C49.9807 56.0341 48.3002 59.7312 47.0874 63.5911C48.2917 59.7279 49.9727 56.0298 52.0914 52.5823V52.5823Z" fill="#111322"/>
<path opacity="0.25" d="M55.3242 48.0386C54.7337 48.7592 54.1833 49.4797 53.6528 50.2103C54.1833 49.4897 54.7337 48.7892 55.3242 48.0386Z" fill="#111322"/>
<path opacity="0.25" d="M57.0856 46.0371C56.4523 46.674 55.8511 47.3421 55.2842 48.0387C55.9447 47.3482 56.5452 46.6576 57.0856 46.0371Z" fill="#111322"/>
<path opacity="0.25" d="M141.614 82.8964C141.323 80.4745 141.153 78.0125 140.973 75.5505L141.614 82.8964Z" fill="#111322"/>
<path opacity="0.25" d="M160.118 110.309C160.35 108.802 160.447 107.278 160.408 105.755C160.537 107.279 160.44 108.813 160.118 110.309V110.309Z" fill="#111322"/>
</g>
<path d="M39.3612 105.505C37.6116 95.0502 37.228 84.4127 38.2203 73.8593C39.6314 58.7572 46.2267 45.2063 59.4873 36.6094C71.2643 29.0664 85.5363 26.4601 99.2192 29.3536C113.16 32.4061 126.501 42.6843 131.785 55.7848C137.47 69.9061 130.334 93.375 147.208 101.752C149.447 102.523 151.734 103.152 154.053 103.633C154.053 106.506 154.143 109.218 152.252 111.64C148.128 117.044 139.572 114.402 134.237 118.375C130.334 121.257 128.973 125.471 128.693 130.024C128.473 133.267 127.782 136.86 124.91 138.932C121.707 141.223 117.104 140.843 113.441 141.934C108.517 143.405 106.225 146.598 103.703 150.441C103.2 151.307 102.546 152.077 101.771 152.713C93.7649 158.787 80.1339 154.514 72.1675 150.441C60.6508 144.375 51.2821 134.908 45.336 123.329C42.4307 117.734 40.4149 111.72 39.3612 105.505V105.505Z" fill="url(#paint1_linear_6552_62033)"/>
<path d="M64.8718 86.8296C73.5828 86.8296 80.6444 79.7679 80.6444 71.057C80.6444 62.346 73.5828 55.2843 64.8718 55.2843C56.1608 55.2843 49.0991 62.346 49.0991 71.057C49.0991 79.7679 56.1608 86.8296 64.8718 86.8296Z" fill="#18B68B"/>
<path d="M104.343 86.8296C113.054 86.8296 120.116 79.7679 120.116 71.057C120.116 62.346 113.054 55.2843 104.343 55.2843C95.6325 55.2843 88.5708 62.346 88.5708 71.057C88.5708 79.7679 95.6325 86.8296 104.343 86.8296Z" fill="#18B68B"/>
<path d="M64.8718 84.1875C73.5828 84.1875 80.6444 77.1259 80.6444 68.4149C80.6444 59.7039 73.5828 52.6422 64.8718 52.6422C56.1608 52.6422 49.0991 59.7039 49.0991 68.4149C49.0991 77.1259 56.1608 84.1875 64.8718 84.1875Z" fill="#28404E"/>
<path d="M104.343 84.1875C113.054 84.1875 120.116 77.1259 120.116 68.4149C120.116 59.7039 113.054 52.6422 104.343 52.6422C95.6325 52.6422 88.5708 59.7039 88.5708 68.4149C88.5708 77.1259 95.6325 84.1875 104.343 84.1875Z" fill="#28404E"/>
<path d="M64.8715 59.6178C62.5357 59.6178 60.2956 60.5457 58.644 62.1973C56.9923 63.849 56.0645 66.0891 56.0645 68.4249C56.0645 70.7606 56.9923 73.0007 58.644 74.6524C60.2956 76.304 62.5357 77.2319 64.8715 77.2319V59.6178Z" fill="#18B68B"/>
<path d="M104.343 59.6278C102.007 59.6278 99.7673 60.5557 98.1157 62.2073C96.464 63.859 95.5361 66.0991 95.5361 68.4349C95.5361 70.7706 96.464 73.0108 98.1157 74.6624C99.7673 76.314 102.007 77.2419 104.343 77.2419V59.6278Z" fill="#0086ff"/>
<path d="M135.298 80.8648C134.784 78.5859 134.45 76.2703 134.297 73.9392V73.9392V72.8584C134.317 72.8069 134.317 72.7497 134.297 72.6983C134.045 68.8322 133.246 65.0213 131.925 61.3792C126.501 48.2687 113.19 37.9804 99.209 34.958C85.5361 32.037 71.2629 34.6263 59.4872 42.1638C46.1865 50.7807 39.5312 64.3215 38.1601 79.4337C37.9499 81.7956 37.7998 84.2275 37.7097 86.6795C37.7097 82.4094 37.8865 78.136 38.2401 73.8592C39.6513 58.7571 46.2466 45.2162 59.4872 36.6093C71.2621 29.0612 85.5362 26.4545 99.2191 29.3535C113.17 32.4059 126.501 42.6842 131.795 55.7847C133.797 60.7887 134.207 66.9536 134.647 73.2187L135.298 80.8648Z" fill="#18B68B"/>
<path d="M149.179 112.09C149.72 111.469 150.24 110.839 150.751 110.198L151.131 109.708C151.131 109.708 151.361 109.408 151.401 109.368L152.102 108.447C152.353 108.107 152.702 107.851 153.103 107.716C153.103 107.626 153.153 107.546 153.173 107.456C153.227 107.229 153.336 107.018 153.492 106.843C153.647 106.669 153.844 106.535 154.063 106.455C154.143 105.546 154.143 104.632 154.063 103.723C151.375 106.854 147.785 109.077 143.785 110.088C139.472 111.489 134.247 110.909 130.354 113.761C126.461 116.613 125.09 120.857 124.8 125.431C124.57 128.633 123.899 132.286 121.027 134.338C117.814 136.62 113.231 136.199 109.538 137.34C104.654 138.811 102.332 142.054 99.8099 145.837C99.3268 146.714 98.6776 147.489 97.8983 148.119C89.8919 154.194 76.2009 149.92 68.2846 145.847C66.6833 145.006 65.1221 144.096 63.6008 143.135C64.6016 144.196 65.6024 145.296 66.6032 146.297C66.8927 146.29 67.1801 146.348 67.4439 146.467C69.2295 147.403 70.8409 148.639 72.2077 150.12C72.6581 150.29 73.1085 150.471 73.5488 150.661C74.5496 151.091 75.4804 151.582 76.4311 152.092C77.8823 152.352 79.3535 152.502 80.7946 152.873C81.5953 153.083 82.4059 153.303 83.1965 153.533C86.7994 153.723 90.3323 154.594 93.9352 154.694C94.1474 154.706 94.355 154.76 94.5457 154.854C95.9626 154.516 97.3593 154.099 98.729 153.603C98.8064 153.528 98.8984 153.471 98.9992 153.433L99.2294 153.243C99.8482 152.731 100.44 152.186 101.001 151.612C102.142 150.451 103.193 149.2 104.243 147.959C104.395 147.789 104.588 147.661 104.804 147.588C105.484 146.838 106.225 146.127 106.966 145.437C106.842 145.093 106.841 144.718 106.961 144.374C107.081 144.03 107.316 143.737 107.626 143.545C110.378 141.754 113.631 141.163 116.804 140.543C119.726 139.942 122.808 139.252 124.88 136.98C124.88 136.98 124.97 136.92 125.02 136.88C125.591 134.878 126.551 133.027 127.142 131.045V130.965C127.208 128.271 127.729 125.608 128.683 123.089C128.683 123.089 128.683 123.089 128.683 123.009C128.68 122.733 128.757 122.462 128.903 122.228C130.529 119.632 132.722 117.438 135.318 115.813C135.457 115.737 135.605 115.68 135.759 115.643C135.991 115.507 136.251 115.424 136.519 115.403C140.272 115.122 143.945 114.262 147.668 113.711C148.209 113.191 148.712 112.65 149.179 112.09Z" fill="#18B68B"/>
<path d="M154.113 103.423C151.931 103.003 149.786 102.41 147.698 101.651C145.979 100.938 144.403 99.9209 143.044 98.6489C140.612 96.4134 138.763 93.6165 137.66 90.5024C136.526 87.267 135.787 83.9067 135.458 80.4943C135.168 77.9823 134.998 75.4903 134.828 72.9383C134.387 66.6032 133.967 60.6284 131.956 55.6744C126.741 43.0343 113.591 32.3757 99.2393 29.2232C95.662 28.469 92.0164 28.0867 88.3605 28.0823H88.2605H88.1704H88.0603C77.8833 28.0762 67.9194 30.998 59.3573 36.499C46.9273 44.5955 39.5414 57.5159 38.0202 73.869C37.0244 84.4386 37.4046 95.0927 39.1511 105.564C40.2076 111.796 42.2338 117.824 45.1559 123.429C51.1046 135.045 60.5014 144.536 72.0575 150.601C74.5797 151.916 77.2076 153.017 79.9138 153.893C84.0313 155.329 88.3748 156.007 92.734 155.895C95.1096 155.803 97.4404 155.22 99.5795 154.183C101.015 153.501 102.278 152.502 103.272 151.261C104.383 149.85 105.274 148.259 106.375 146.858C107.396 145.585 108.616 144.487 109.988 143.605C113.681 141.303 118.094 141.603 122.128 140.402C123.291 140.074 124.371 139.499 125.293 138.717C126.215 137.935 126.958 136.963 127.472 135.869C128.266 134.018 128.711 132.037 128.783 130.024C129.123 124.71 130.905 120.947 134.267 118.495C136.659 116.733 139.732 116.283 142.694 115.843C146.547 115.272 150.701 114.562 152.902 110.909C154.223 108.657 154.163 105.985 154.193 103.453L154.113 103.423ZM88.2104 31.2949V31.455C91.6742 31.4645 95.1268 31.847 98.5087 32.5959C111.849 35.4882 123.999 45.3061 128.763 57.0355C130.544 61.4491 131.015 66.9935 131.385 73.2585C132.196 85.048 133.116 98.4187 145.757 104.694C147.397 105.295 149.067 105.813 150.761 106.245C150.78 107.519 150.387 108.766 149.64 109.798C148.249 111.739 145.356 112.17 143.174 112.48C140.214 112.761 137.308 113.465 134.548 114.572C133.74 114.935 132.971 115.381 132.256 115.903C128.052 119.015 125.801 123.599 125.36 129.914C125.15 133.367 124.359 135.368 122.918 136.369C121.135 137.387 119.143 137.983 117.094 138.111C115.5 138.292 113.924 138.6 112.38 139.031C107.666 140.422 104.513 143.625 101.781 147.538C101.31 148.337 100.771 149.093 100.17 149.8C99.4823 150.485 98.675 151.037 97.7881 151.431C95.7906 152.296 93.629 152.716 91.453 152.662C86.3089 152.662 79.6435 150.821 73.6287 147.718C62.6767 141.961 53.7783 132.951 48.1583 121.928C45.4048 116.607 43.5067 110.885 42.5338 104.974C40.8125 94.806 40.4322 84.4561 41.4029 74.1893C42.3336 63.5507 46.537 48.869 61.1487 39.3513C69.1968 34.189 78.5589 31.4482 88.1203 31.455V31.455V31.2949H88.2104Z" fill="#28404E"/>
</g>
<defs>
<linearGradient id="paint0_linear_6552_62033" x1="27.882" y1="27.382" x2="160.118" y2="159.618" gradientUnits="userSpaceOnUse">
<stop stop-color="#C5FFEF"/>
<stop offset="1" stop-color="#B3DCD1"/>
</linearGradient>
<linearGradient id="paint1_linear_6552_62033" x1="54.723" y1="46.8789" x2="144.544" y2="128.825" gradientUnits="userSpaceOnUse">
<stop stop-color="#0086ff"/>
<stop offset="1" stop-color="#18B68B"/>
</linearGradient>
<clipPath id="clip0_6552_62033">
<rect width="187" height="187" fill="white" transform="translate(0.5)"/>
</clipPath>
</defs>
</svg>
