<svg width="32" height="32" viewBox="0 0 32 32" fill="none" xmlns="http://www.w3.org/2000/svg">
<rect width="32" height="32" rx="8" fill="#64DDC0" fill-opacity="0.15"/>
<path fill-rule="evenodd" clip-rule="evenodd" d="M11.75 13.75H9C7.895 13.75 7 12.855 7 11.75V9C7 7.895 7.895 7 9 7H11.75C12.855 7 13.75 7.895 13.75 9V11.75C13.75 12.855 12.855 13.75 11.75 13.75Z" stroke="#60E6C5" stroke-width="1.5" stroke-linecap="round" stroke-linejoin="round"/>
<path fill-rule="evenodd" clip-rule="evenodd" d="M23 13.75H20.25C19.145 13.75 18.25 12.855 18.25 11.75V9C18.25 7.895 19.145 7 20.25 7H23C24.105 7 25 7.895 25 9V11.75C25 12.855 24.105 13.75 23 13.75Z" stroke="#60E6C5" stroke-width="1.5" stroke-linecap="round" stroke-linejoin="round"/>
<path fill-rule="evenodd" clip-rule="evenodd" d="M11.75 25H9C7.895 25 7 24.105 7 23V20.25C7 19.145 7.895 18.25 9 18.25H11.75C12.855 18.25 13.75 19.145 13.75 20.25V23C13.75 24.105 12.855 25 11.75 25Z" stroke="#60E6C5" stroke-width="1.5" stroke-linecap="round" stroke-linejoin="round"/>
<path fill-rule="evenodd" clip-rule="evenodd" d="M23 25H20.25C19.145 25 18.25 24.105 18.25 23V20.25C18.25 19.145 19.145 18.25 20.25 18.25H23C24.105 18.25 25 19.145 25 20.25V23C25 24.105 24.105 25 23 25Z" stroke="#60E6C5" stroke-width="1.5" stroke-linecap="round" stroke-linejoin="round"/>
</svg>
