<svg viewBox="0 0 20 20" fill="none" xmlns="http://www.w3.org/2000/svg">
<path fill-rule="evenodd" clip-rule="evenodd" d="M4.99787 17.5032H3.33051C2.87015 17.503 2.49699 17.1299 2.49683 16.6695V11.6674C2.49699 11.2071 2.87015 10.8339 3.33051 10.8337H4.99787C5.45823 10.8339 5.83138 11.2071 5.83155 11.6674V16.6695C5.83138 17.1299 5.45823 17.503 4.99787 17.5032V17.5032Z" stroke="currentColor" stroke-width="1.25" stroke-linecap="round" stroke-linejoin="round"/>
<path d="M10.8337 14.1684H12.4677C12.8285 14.1686 13.1796 14.0515 13.4681 13.8349L15.4823 12.3243C15.9852 11.9474 16.6886 11.9975 17.133 12.4418V12.4418C17.37 12.6785 17.5031 12.9997 17.5031 13.3347C17.5031 13.6696 17.37 13.9909 17.133 14.2276L15.4048 15.9558C14.9391 16.4212 14.3462 16.7385 13.7007 16.8678L11.258 17.3564C10.7738 17.4532 10.274 17.4413 9.79492 17.3213L7.58567 16.7695C7.32155 16.7029 7.05021 16.6693 6.77783 16.6694H5.8316" stroke="currentColor" stroke-width="1.25" stroke-linecap="round" stroke-linejoin="round"/>
<path d="M10.8337 14.1685H12.0717C12.4067 14.1685 12.728 14.0355 12.9649 13.7986C13.2018 13.5617 13.3348 13.2404 13.3347 12.9054V12.6528C13.3349 12.0735 12.9406 11.5685 12.3785 11.4282L10.4677 10.9505C10.1571 10.873 9.83824 10.8337 9.51814 10.8337V10.8337C8.74512 10.8335 7.98938 11.0624 7.3464 11.4915L5.8316 12.5011" stroke="currentColor" stroke-width="1.25" stroke-linecap="round" stroke-linejoin="round"/>
<path d="M16.059 5.60838C16.8729 6.42231 16.8729 7.74195 16.059 8.55588C15.2451 9.36981 13.9254 9.36981 13.1115 8.55588C12.2976 7.74195 12.2976 6.42231 13.1115 5.60838C13.5023 5.21751 14.0325 4.99792 14.5852 4.99792C15.138 4.99792 15.6681 5.21751 16.059 5.60838" stroke="currentColor" stroke-width="1.25" stroke-linecap="round" stroke-linejoin="round"/>
<path fill-rule="evenodd" clip-rule="evenodd" d="M5.77612 5.0371C5.29402 4.555 5.29402 3.77337 5.77612 3.29127L7.04288 2.0245C7.52498 1.5424 8.30662 1.5424 8.78871 2.0245L10.0555 3.29127C10.5376 3.77337 10.5376 4.555 10.0555 5.0371L8.78871 6.30387C8.30661 6.78596 7.52498 6.78596 7.04288 6.30387L5.77612 5.0371Z" stroke="currentColor" stroke-width="1.25" stroke-linecap="round" stroke-linejoin="round"/>
</svg>
