<svg width="24" height="24" viewBox="0 0 24 24" fill="none" xmlns="http://www.w3.org/2000/svg">
<path d="M18.3149 12.521L19.8799 14.086L21.4439 12.521" stroke="#453a3c " stroke-width="1.5" stroke-linecap="round" stroke-linejoin="round"/>
<path d="M18.044 17.215C16.515 19.121 14.17 20.344 11.537 20.344C6.92897 20.344 3.19397 16.609 3.19397 12.001C3.19397 7.393 6.92897 3.658 11.537 3.658C16.145 3.658 19.88 7.392 19.88 12V14.086" stroke="#453a3c " stroke-width="1.5" stroke-linecap="round" stroke-linejoin="round"/>
<path d="M9.81598 10.75V9.434C9.81598 8.504 10.57 7.75 11.5 7.75C12.43 7.75 13.184 8.504 13.184 9.434V10.75" stroke="#453a3c " stroke-width="1.5" stroke-linecap="round" stroke-linejoin="round"/>
<path d="M13.5 15.75H9.5C8.948 15.75 8.5 15.302 8.5 14.75V11.75C8.5 11.198 8.948 10.75 9.5 10.75H13.5C14.052 10.75 14.5 11.198 14.5 11.75V14.75C14.5 15.302 14.052 15.75 13.5 15.75Z" stroke="#453a3c " stroke-width="1.5" stroke-linecap="round" stroke-linejoin="round"/>
</svg>
