<svg  viewBox="0 0 24 24" fill="none" xmlns="http://www.w3.org/2000/svg">
<path d="M14.4069 13.4069L4 3" stroke="currentColor" stroke-width="1.5" stroke-linecap="round" stroke-linejoin="round"/>
<path d="M14.5453 18.1129C15.3097 18.8774 16.9519 18.4746 18.2132 17.2132C19.4745 15.9519 19.8773 14.3097 19.1129 13.5453C18.82 13.2158 18.4628 12.9496 18.0633 12.7631C17.6638 12.5765 17.2304 12.4736 16.7897 12.4607C16.349 12.4477 15.9103 12.525 15.5006 12.6877C15.0908 12.8504 14.7186 13.0952 14.4068 13.4069C14.0951 13.7187 13.8503 14.0909 13.6876 14.5006C13.5249 14.9104 13.4477 15.3491 13.4606 15.7898C13.4736 16.2305 13.5765 16.6639 13.763 17.0634C13.9495 17.4629 14.2157 17.82 14.5453 18.1129V18.1129Z" stroke="currentColor" stroke-width="1.5" stroke-linecap="round" stroke-linejoin="round"/>
<path d="M16.9874 18.1086L19.4394 20.5606C19.7207 20.8419 20.1023 21 20.5001 21C20.8979 21 21.2794 20.8419 21.5607 20.5606V20.5606C21.7 20.4213 21.8105 20.256 21.8859 20.074C21.9613 19.892 22.0001 19.697 22.0001 19.5C22.0001 19.303 21.9613 19.1079 21.8859 18.9259C21.8105 18.744 21.7 18.5786 21.5607 18.4393L19.1087 15.9873" stroke="currentColor" stroke-width="1.5" stroke-linecap="round" stroke-linejoin="round"/>
<path d="M9.59314 13.4069L20 3" stroke="currentColor" stroke-width="1.5" stroke-linecap="round" stroke-linejoin="round"/>
<path d="M9.4547 18.1129C8.69027 18.8773 7.04808 18.4745 5.78677 17.2132C4.52546 15.9519 4.12266 14.3097 4.88709 13.5453C5.49319 12.9036 6.32915 12.5286 7.21146 12.5027C8.09377 12.4767 8.95032 12.8019 9.59309 13.4069C10.1981 14.0497 10.5233 14.9062 10.4973 15.7885C10.4714 16.6708 10.0964 17.5068 9.4547 18.1129V18.1129Z" stroke="currentColor" stroke-width="1.5" stroke-linecap="round" stroke-linejoin="round"/>
<path d="M7.01266 18.1086L4.56066 20.5606C4.27936 20.8419 3.89783 21 3.5 21C3.10218 21 2.72065 20.8419 2.43934 20.5606V20.5606C2.30006 20.4213 2.18957 20.256 2.11418 20.074C2.0388 19.892 2 19.697 2 19.5C2 19.303 2.0388 19.1079 2.11418 18.9259C2.18957 18.744 2.30006 18.5786 2.43934 18.4393L4.89135 15.9873" stroke="currentColor" stroke-width="1.5" stroke-linecap="round" stroke-linejoin="round"/>
</svg>
