<svg width="28" height="28" viewBox="0 0 28 28" fill="none" xmlns="http://www.w3.org/2000/svg">
<g clip-path="url(#clip0_6308_59872)">
<path d="M24 8.41666H23.209C22.9153 8.41666 22.5 8.84029 22.5 9.11151V18.9417C22.5 19.2132 22.9153 19.5833 23.209 19.5833H24V21.9167H16.8333V19.5833H18.3333V9.24999H18.2598L14.757 21.9167H12.0451L8.5875 9.24999H8.5V19.5833H10V21.9167H4V19.5833H4.7683C5.0847 19.5833 5.5 19.2132 5.5 18.9417V9.11151C5.5 8.84029 5.0847 8.41666 4.7683 8.41666H4V6.08332H11.5027L13.966 15.25H14.0338L16.5199 6.08332H24V8.41666Z" fill="currentColor"/>
</g>
<defs>
<clipPath id="clip0_6308_59872">
<rect width="20" height="15.8333" fill="currentColor" transform="translate(4 6.08334)"/>
</clipPath>
</defs>
</svg>
