<svg width="25" height="24" viewBox="0 0 25 24" fill="none" xmlns="http://www.w3.org/2000/svg">
<path d="M19.3994 12C19.3994 12.0989 19.3701 12.1956 19.3151 12.2778C19.2602 12.36 19.1821 12.4241 19.0908 12.4619C18.9994 12.4998 18.8989 12.5097 18.8019 12.4904C18.7049 12.4711 18.6158 12.4235 18.5459 12.3536C18.4759 12.2836 18.4283 12.1945 18.409 12.0975C18.3897 12.0006 18.3996 11.9 18.4375 11.8087C18.4753 11.7173 18.5394 11.6392 18.6216 11.5843C18.7039 11.5293 18.8005 11.5 18.8994 11.5C19.032 11.5 19.1592 11.5527 19.253 11.6464C19.3467 11.7402 19.3994 11.8674 19.3994 12Z" stroke="currentColor" stroke-width="1.5" stroke-linecap="round" stroke-linejoin="round"/>
<path d="M13.3994 12C13.3994 12.0989 13.3701 12.1956 13.3151 12.2778C13.2602 12.36 13.1821 12.4241 13.0908 12.4619C12.9994 12.4998 12.8989 12.5097 12.8019 12.4904C12.7049 12.4711 12.6158 12.4235 12.5459 12.3536C12.4759 12.2836 12.4283 12.1945 12.409 12.0975C12.3897 12.0006 12.3996 11.9 12.4375 11.8087C12.4753 11.7173 12.5394 11.6392 12.6216 11.5843C12.7039 11.5293 12.8005 11.5 12.8994 11.5C13.032 11.5 13.1592 11.5527 13.253 11.6464C13.3467 11.7402 13.3994 11.8674 13.3994 12Z" stroke="currentColor" stroke-width="1.5" stroke-linecap="round" stroke-linejoin="round"/>
<path d="M7.39941 12C7.39941 12.0989 7.37009 12.1956 7.31515 12.2778C7.26021 12.36 7.18212 12.4241 7.09076 12.4619C6.99939 12.4998 6.89886 12.5097 6.80187 12.4904C6.70488 12.4711 6.61579 12.4235 6.54586 12.3536C6.47593 12.2836 6.42831 12.1945 6.40902 12.0975C6.38973 12.0006 6.39963 11.9 6.43747 11.8087C6.47532 11.7173 6.5394 11.6392 6.62163 11.5843C6.70385 11.5293 6.80052 11.5 6.89941 11.5C7.03202 11.5 7.1592 11.5527 7.25297 11.6464C7.34674 11.7402 7.39941 11.8674 7.39941 12Z" stroke="currentColor" stroke-width="1.5" stroke-linecap="round" stroke-linejoin="round"/>
</svg>
