<svg width="20" height="20" viewBox="0 0 20 20" fill="none" xmlns="http://www.w3.org/2000/svg">
<path d="M9.9972 14.5833C9.76803 14.5833 9.58053 14.7708 9.58303 14.9999C9.58303 15.2291 9.77053 15.4166 9.9997 15.4166C10.2289 15.4166 10.4164 15.2291 10.4164 14.9999C10.4164 14.7708 10.2289 14.5833 9.9972 14.5833Z" stroke="white" stroke-width="1.5" stroke-linecap="round" stroke-linejoin="round"/>
<path d="M9.9972 9.58325C9.76803 9.58325 9.58053 9.77075 9.58303 9.99992C9.58303 10.2291 9.77053 10.4166 9.9997 10.4166C10.2289 10.4166 10.4164 10.2291 10.4164 9.99992C10.4164 9.77075 10.2289 9.58325 9.9972 9.58325Z" stroke="white" stroke-width="1.5" stroke-linecap="round" stroke-linejoin="round"/>
<path d="M9.9972 4.58325C9.76803 4.58325 9.58053 4.77075 9.58303 4.99992C9.58303 5.22909 9.77053 5.41659 9.9997 5.41659C10.2289 5.41659 10.4164 5.22909 10.4164 4.99992C10.4164 4.77075 10.2289 4.58325 9.9972 4.58325Z" stroke="white" stroke-width="1.5" stroke-linecap="round" stroke-linejoin="round"/>
</svg>
