<svg width="25" height="24" viewBox="0 0 25 24" fill="none" xmlns="http://www.w3.org/2000/svg">
<path fill-rule="evenodd" clip-rule="evenodd" d="M6.5 21H4.5C3.948 21 3.5 20.552 3.5 20V14C3.5 13.448 3.948 13 4.5 13H6.5C7.052 13 7.5 13.448 7.5 14V20C7.5 20.552 7.052 21 6.5 21Z" stroke="currentColor" stroke-width="1.5" stroke-linecap="round" stroke-linejoin="round"/>
<path d="M13.5 17H15.833C16.266 17 16.687 16.86 17.033 16.6L19.449 14.788C20.052 14.336 20.896 14.396 21.429 14.929V14.929C22.021 15.521 22.021 16.48 21.429 17.071L19.356 19.144C18.798 19.702 18.086 20.083 17.312 20.238L14.382 20.824C13.801 20.94 13.202 20.926 12.627 20.782L9.977 20.12C9.66 20.04 9.335 20 9.008 20H7.5" stroke="currentColor" stroke-width="1.5" stroke-linecap="round" stroke-linejoin="round"/>
<path d="M13.5 17H14.985C15.822 17 16.5 16.322 16.5 15.485V15.182C16.5 14.487 16.027 13.881 15.353 13.713L13.061 13.14C12.688 13.047 12.306 13 11.922 13V13C10.995 13 10.088 13.274 9.317 13.789L7.5 15" stroke="currentColor" stroke-width="1.5" stroke-linecap="round" stroke-linejoin="round"/>
<path d="M17.6688 5.15521C18.7771 6.26352 18.7771 8.06044 17.6688 9.16875C16.5605 10.2771 14.7636 10.2771 13.6553 9.16875C12.547 8.06044 12.547 6.26352 13.6553 5.15521C14.7636 4.0469 16.5605 4.0469 17.6688 5.15521" stroke="currentColor" stroke-width="1.5" stroke-linecap="round" stroke-linejoin="round"/>
<path d="M15.131 4.375C15.038 3.81 14.78 3.267 14.344 2.831C13.236 1.723 11.439 1.723 10.331 2.831C9.223 3.939 9.223 5.736 10.331 6.844C11.021 7.534 11.977 7.793 12.868 7.624" stroke="currentColor" stroke-width="1.5" stroke-linecap="round" stroke-linejoin="round"/>
</svg>