<svg width="25" height="24" viewBox="0 0 25 24" fill="none" xmlns="http://www.w3.org/2000/svg">
<path d="M6.0945 9.86387L6.68903 6.34438H6.12885C5.83193 6.34438 5.61383 6.06207 5.69172 5.77348L6.22172 3.81092C6.27501 3.61347 6.45433 3.47616 6.65885 3.47616H13.7222C13.9267 3.47616 14.106 3.61347 14.1593 3.81092L14.6893 5.77348C14.726 5.90946 14.6975 6.05495 14.6117 6.16683C14.5259 6.27871 14.393 6.34438 14.2522 6.34438H13.8244L14.4366 7.87865C14.7165 8.57276 14.9265 9.09958 15.2546 10.3854H15.8654V7.54146C15.8654 7.29139 16.0681 7.08863 16.3182 7.08863H16.7162V6.80185C16.7162 6.34991 16.8995 5.90747 17.2188 5.58841L17.5098 5.29721C17.6866 5.12032 17.9734 5.12054 18.1503 5.29699C18.3272 5.47387 18.3272 5.76065 18.1505 5.93754L17.8591 6.22896C17.7083 6.37953 17.6219 6.58848 17.6219 6.80185V7.08863H18.0216C18.2717 7.08863 18.4744 7.29139 18.4744 7.54146V10.4819C19.9537 10.6818 21.3222 11.1862 22.1729 11.8805C22.4969 12.141 22.6826 12.523 22.6826 12.9283V13.7285C22.9587 13.9105 23.2171 14.1219 23.4463 14.3675C23.6168 14.5504 23.6068 14.8369 23.424 15.0076C23.2406 15.1785 22.9545 15.1678 22.7839 14.9853C22.1729 14.3302 21.3472 13.9518 20.4358 13.9395C18.6341 13.9173 17.3573 15.2425 17.1429 16.8092C17.0702 17.3423 16.5983 17.7598 16.0688 17.7598H11.927C11.0047 19.406 9.24507 20.5227 7.22754 20.5227C4.25253 20.5227 1.83205 18.1069 1.83205 15.1376C1.83205 12.5513 3.662 10.3861 6.0945 9.86387ZM14.4487 10.9006C14.0869 9.43371 13.8862 8.93704 13.5853 8.19461L12.8477 6.34438H9.63762V10.3072L9.63895 10.3079C11.2431 11.1118 12.3544 12.6857 12.5737 14.4765H14.4487V10.9006ZM7.60763 6.34438L7.03407 9.74038C7.09819 9.73751 7.16187 9.73618 7.22489 9.73618C7.74828 9.73618 8.25338 9.81263 8.73197 9.95127V6.34438H7.60763ZM13.3755 4.38182H7.00555L6.7201 5.43872C9.56768 5.43872 10.6043 5.43872 13.6609 5.43872L13.3755 4.38182ZM17.5688 10.3964V7.99429H16.771V10.3854C17.0147 10.3868 17.2282 10.3805 17.5688 10.3964ZM12.3325 16.8541H16.0688C16.1479 16.8541 16.234 16.7727 16.2457 16.6867C16.5241 14.6486 18.1981 13.0298 20.3988 13.0298C20.8719 13.0298 21.3349 13.109 21.7769 13.2653V12.9283C21.7769 12.7985 21.7143 12.6738 21.6027 12.5841C20.8006 11.9296 19.3783 11.4608 17.8994 11.3308C17.2346 11.2687 15.3082 11.291 15.3544 11.291V14.9294C15.3544 15.1794 15.1516 15.3822 14.9016 15.3822H12.6076C12.5408 16.0184 12.5092 16.3213 12.3325 16.8541ZM7.22754 19.6171C9.71409 19.6171 11.7072 17.5881 11.7072 15.1376C11.7072 12.6884 9.72094 10.6476 7.22754 10.6476C4.79123 10.6476 2.73771 12.6318 2.73771 15.1376C2.73771 17.6076 4.75179 19.6171 7.22754 19.6171Z" fill="currentColor"/>
<path d="M20.4711 14.7507C22.0611 14.7507 23.3548 16.0444 23.3548 17.6344C23.3548 19.2277 22.0611 20.5239 20.4711 20.5239C18.8809 20.5239 17.5872 19.2277 17.5872 17.6344C17.5872 16.0444 18.8809 14.7507 20.4711 14.7507ZM20.4711 19.6182C21.5618 19.6182 22.4491 18.7283 22.4491 17.6344C22.4491 16.5437 21.5618 15.6564 20.4711 15.6564C19.3803 15.6564 18.4928 16.5437 18.4928 17.6344C18.4928 18.7283 19.3803 19.6182 20.4711 19.6182Z" fill="currentColor"/>
<path d="M7.20141 9.52637C10.2332 9.52637 12.7 11.9908 12.7 15.0197C12.7 18.0548 10.2332 20.5239 7.20141 20.5239C4.16923 20.5239 1.70242 18.0548 1.70242 15.0197C1.70242 11.9908 4.16923 9.52637 7.20141 9.52637ZM7.20141 18.7987C9.28119 18.7987 10.9731 17.1034 10.9731 15.0197C10.9731 12.9419 9.28119 11.2516 7.20141 11.2516C5.12164 11.2516 3.42932 12.9419 3.42932 15.0197C3.42932 17.1034 5.12164 18.7987 7.20141 18.7987Z" fill="currentColor"/>
</svg>