<svg width="25" height="24" viewBox="0 0 25 24" fill="none" xmlns="http://www.w3.org/2000/svg">
<path d="M8.30029 4L6.80029 5.5" stroke="currentColor" stroke-width="1.5" stroke-linecap="round" stroke-linejoin="round"/>
<path d="M6.80029 2.5L8.30029 4" stroke="currentColor" stroke-width="1.5" stroke-linecap="round" stroke-linejoin="round"/>
<path d="M6.30029 4C4.64329 4 3.30029 5.343 3.30029 7" stroke="currentColor" stroke-width="1.5" stroke-linecap="round" stroke-linejoin="round"/>
<path d="M6.30029 4H8.30029" stroke="currentColor" stroke-width="1.5" stroke-linecap="round" stroke-linejoin="round"/>
<path d="M16.3003 20L17.8003 18.5" stroke="currentColor" stroke-width="1.5" stroke-linecap="round" stroke-linejoin="round"/>
<path d="M17.8003 21.5L16.3003 20" stroke="currentColor" stroke-width="1.5" stroke-linecap="round" stroke-linejoin="round"/>
<path d="M18.3003 20C19.9573 20 21.3003 18.657 21.3003 17" stroke="currentColor" stroke-width="1.5" stroke-linecap="round" stroke-linejoin="round"/>
<path d="M18.3003 20H16.3003" stroke="currentColor" stroke-width="1.5" stroke-linecap="round" stroke-linejoin="round"/>
<path d="M9.80029 20C12.8253 20 15.3003 17.525 15.3003 14.5C15.3003 11.475 12.8253 9 9.80029 9C6.77529 9 4.30029 11.475 4.30029 14.5C4.30029 15.734 4.71729 16.873 5.41029 17.792C6.41529 19.129 8.00929 20 9.80029 20Z" stroke="currentColor" stroke-width="1.5" stroke-linecap="round" stroke-linejoin="round"/>
<path d="M18.6891 5.61102C20.8281 7.75002 20.8281 11.25 18.6891 13.389C18.5181 13.56 18.3311 13.703 18.1421 13.842" stroke="currentColor" stroke-width="1.5" stroke-linecap="round" stroke-linejoin="round"/>
<path d="M18.6891 5.61102C16.5501 3.47202 13.0501 3.47202 10.9111 5.61102C10.7411 5.78102 10.5951 5.96602 10.4531 6.15302" stroke="currentColor" stroke-width="1.5" stroke-linecap="round" stroke-linejoin="round"/>
</svg>
