<svg width="24" height="24" viewBox="0 0 24 24" fill="none" xmlns="http://www.w3.org/2000/svg">
<path d="M6.60923 5.20685C6.07101 5.20685 5.54488 5.36641 5.09733 5.66537C4.64977 5.96433 4.3009 6.38926 4.0948 6.88645C3.8887 7.38365 3.83463 7.93078 3.93942 8.4587C4.04421 8.98662 4.30316 9.47162 4.68353 9.8524C5.06391 10.2332 5.54863 10.4926 6.07644 10.598C6.60424 10.7034 7.15144 10.6499 7.64885 10.4443C8.14626 10.2387 8.57157 9.8903 8.871 9.44307C9.17044 8.99584 9.33056 8.46987 9.33114 7.93166C9.33133 7.57402 9.26107 7.21985 9.12439 6.88936C8.9877 6.55888 8.78726 6.25855 8.53451 6.00553C8.28176 5.75251 7.98164 5.55174 7.6513 5.41471C7.32097 5.27767 6.96687 5.20704 6.60923 5.20685V5.20685ZM6.60923 9.45157C6.20613 9.45157 5.81953 9.29143 5.53449 9.00639C5.24945 8.72136 5.08932 8.33476 5.08932 7.93166C5.08932 7.52855 5.24945 7.14195 5.53449 6.85692C5.81953 6.57188 6.20613 6.41174 6.60923 6.41174V9.45157Z" fill="currentColor"/>
<path d="M13.4191 5.20685C12.8807 5.20599 12.3541 5.36482 11.906 5.66326C11.4579 5.96169 11.1083 6.38632 10.9015 6.88344C10.6948 7.38055 10.6401 7.92783 10.7444 8.45603C10.8487 8.98423 11.1073 9.46964 11.4875 9.85086C11.8677 10.2321 12.3524 10.492 12.8803 10.5977C13.4082 10.7034 13.9557 10.6502 14.4533 10.4447C14.951 10.2393 15.3765 9.89085 15.6762 9.44353C15.9758 8.9962 16.136 8.47006 16.1366 7.93166C16.1374 7.21002 15.8516 6.5176 15.342 6.00664C14.8324 5.49569 14.1407 5.20801 13.4191 5.20685V5.20685ZM13.4191 9.45302C13.2156 9.45931 13.013 9.42467 12.8232 9.35115C12.6333 9.27764 12.4602 9.16675 12.3141 9.02505C12.168 8.88336 12.0518 8.71376 11.9724 8.52631C11.8931 8.33886 11.8522 8.13739 11.8522 7.93384C11.8522 7.73029 11.8931 7.52881 11.9724 7.34136C12.0518 7.15391 12.168 6.98431 12.3141 6.84262C12.4602 6.70093 12.6333 6.59003 12.8232 6.51652C13.013 6.443 13.2156 6.40836 13.4191 6.41465V9.45302Z" fill="currentColor"/>
<path d="M10.6362 1.52827C11.2352 1.52905 11.8324 1.59427 12.4174 1.7228C14.73 2.22798 16.8334 3.92936 17.6565 5.95881C17.9701 6.734 18.0485 7.72841 18.1124 8.76781C18.2575 10.8002 18.4027 13.0924 20.5802 14.1666C20.8691 14.2722 21.1632 14.3628 21.4614 14.4381C21.4692 14.6707 21.3998 14.8994 21.264 15.0884C21.0041 15.4296 20.5178 15.5007 19.9575 15.5864C19.3971 15.672 18.7787 15.7591 18.2532 16.1482C17.5273 16.6795 17.1514 17.4648 17.0744 18.5507C17.0381 19.1546 16.906 19.5059 16.6389 19.6888C16.3264 19.8609 15.979 19.9602 15.6227 19.9792C15.3495 20.0107 15.0791 20.0636 14.8142 20.1374C13.7283 20.4582 13.242 21.2232 12.85 21.8213C12.797 21.918 12.7266 22.0041 12.6424 22.0754C12.2204 22.3672 11.7132 22.5102 11.2009 22.4818C10.3081 22.4818 9.15405 22.1625 8.11174 21.6268C6.21903 20.629 4.67964 19.0724 3.70298 17.1687C3.22445 16.2515 2.89282 15.265 2.72019 14.245C2.42286 12.4882 2.35698 10.7 2.52421 8.92604C2.69406 7.08096 3.43006 4.53906 5.95163 2.89576C7.34769 2.00158 8.97109 1.52695 10.629 1.52827H10.6362ZM10.629 0.996958C8.87129 0.994415 7.15013 1.49842 5.67146 2.44864C3.39087 3.92936 2.24694 6.26656 2.00306 8.87233C1.83196 10.6926 1.89833 12.5275 2.20049 14.3307C2.3832 15.4016 2.73192 16.4375 3.23409 17.401C4.2591 19.3999 5.87503 21.0346 7.86205 22.0826C8.73306 22.5356 10.0396 23.0001 11.2009 23.0001C11.8324 23.0282 12.4553 22.846 12.972 22.4818C13.105 22.3721 13.2167 22.2387 13.3015 22.0884C13.737 21.4265 14.1348 20.8777 14.9811 20.6237C15.6155 20.4263 16.4081 20.4989 16.9641 20.104C17.4562 19.7512 17.5738 19.1212 17.6144 18.5652C17.6653 17.7799 17.9048 17.0453 18.5726 16.5575C19.5031 15.8694 20.9765 16.3253 21.6893 15.3962C22.0145 14.9607 21.9927 14.5005 22 14.0069C21.6013 13.92 21.2078 13.811 20.8212 13.6803C17.9077 12.2286 19.1445 8.17843 18.1574 5.74976C17.2341 3.49821 14.9361 1.7228 12.5336 1.19874C11.9105 1.06485 11.275 0.99721 10.6377 0.996958H10.629Z" fill="currentColor" stroke="currentColor" stroke-width="0.916919"/>
</svg>
