<svg width="25" height="24" viewBox="0 0 25 24" fill="none" xmlns="http://www.w3.org/2000/svg">
<path d="M20.1001 15.5H18.1001C16.9951 15.5 16.1001 14.605 16.1001 13.5C16.1001 12.395 16.9951 11.5 18.1001 11.5H20.1001C20.6521 11.5 21.1001 11.948 21.1001 12.5V14.5C21.1001 15.052 20.6521 15.5 20.1001 15.5Z" stroke="currentColor" stroke-width="1.5" stroke-linecap="round" stroke-linejoin="round"/>
<path d="M20.1001 11.5V8.5C20.1001 7.395 19.2051 6.5 18.1001 6.5H4.6001C3.7721 6.5 3.1001 5.828 3.1001 5C3.1001 4.172 3.7721 3.5 4.6001 3.5H17.1001" stroke="currentColor" stroke-width="1.5" stroke-linecap="round" stroke-linejoin="round"/>
<path d="M20.1001 15.5V18.5C20.1001 19.605 19.2051 20.5 18.1001 20.5H5.1001C3.9951 20.5 3.1001 19.605 3.1001 18.5V5" stroke="currentColor" stroke-width="1.5" stroke-linecap="round" stroke-linejoin="round"/>
</svg>
