<svg width="24" height="24" viewBox="0 0 24 24" fill="none" xmlns="http://www.w3.org/2000/svg">
  <path d="M11.9998 2.99634C15.5911 2.99634 18.5025 5.9077 18.5025 9.49905C18.5025 13.0904 15.5911 16.0018 11.9998 16.0018C8.40843 16.0018 5.49707 13.0904 5.49707 9.49905C5.49707 5.9077 8.40843 2.99634 11.9998 2.99634" stroke="currentColor" stroke-width="1.5" stroke-linecap="round" stroke-linejoin="round"/>
  <path d="M6.99805 16.0017H17.0022" stroke="currentColor" stroke-width="1.5" stroke-linecap="round" stroke-linejoin="round"/>
  <path d="M18.0032 12H19.0028C20.1078 12 21.0036 12.8958 21.0036 14.0008V19.0029C21.0036 20.1079 20.1078 21.0037 19.0028 21.0037H4.99693C3.8919 21.0037 2.99609 20.1079 2.99609 19.0029V14.0008C2.99609 12.8958 3.8919 12 4.99693 12H5.99646" stroke="currentColor" stroke-width="1.5" stroke-linecap="round" stroke-linejoin="round"/>
  <path d="M9.99902 9.99927L11.9999 12.0001L14.0007 9.99927" stroke="currentColor" stroke-width="1.5" stroke-linecap="round" stroke-linejoin="round"/>
  <path d="M12.0002 6.99805V12.0001" stroke="currentColor" stroke-width="1.5" stroke-linecap="round" stroke-linejoin="round"/>
</svg>
