<svg viewBox="0 0 20 20" fill="none" xmlns="http://www.w3.org/2000/svg">
<path d="M17.0581 6.22468C17.3021 5.98061 17.6979 5.98061 17.9419 6.22468C18.1638 6.44657 18.184 6.79379 18.0025 7.03847L17.9419 7.10857L13.2871 11.7634C12.4295 12.6211 11.0611 12.6568 10.1609 11.8706L10.0462 11.7634L8.23657 9.95374C7.85689 9.57407 7.25704 9.54876 6.84801 9.87781L6.76343 9.95374L2.94194 13.7752C2.69786 14.0193 2.30214 14.0193 2.05806 13.7752C1.83617 13.5533 1.816 13.2061 1.99754 12.9614L2.05806 12.8914L5.87955 9.06986C6.73721 8.2122 8.10555 8.17647 9.00577 8.96265L9.12045 9.06986L10.9301 10.8795C11.3098 11.2592 11.9096 11.2845 12.3187 10.9554L12.4032 10.8795L17.0581 6.22468Z" fill="currentColor"/>
<path d="M11.6662 6C11.9776 5.9998 12.2393 6.21314 12.3128 6.50224L12.3277 6.58272L12.3333 6.66753C12.3329 7.03555 12.0343 7.33357 11.6662 7.33333C11.2982 7.33309 11 7.03469 11 6.66667C11 6.29865 11.2982 6.00024 11.6662 6Z" fill="currentColor"/>
<path fill-rule="evenodd" clip-rule="evenodd" d="M6.66667 1.875H13.3333C15.9797 1.875 18.125 4.0203 18.125 6.66667V13.3333C18.125 15.9797 15.9797 18.125 13.3333 18.125H6.66667C4.0203 18.125 1.875 15.9797 1.875 13.3333V6.66667C1.875 4.0203 4.0203 1.875 6.66667 1.875ZM13.3333 3.125H6.66667C4.71066 3.125 3.125 4.71066 3.125 6.66667V13.3333C3.125 15.2893 4.71066 16.875 6.66667 16.875H13.3333C15.2893 16.875 16.875 15.2893 16.875 13.3333V6.66667C16.875 4.71066 15.2893 3.125 13.3333 3.125Z" fill="currentColor"/>
</svg>
