<svg width="98" height="22" viewBox="0 0 98 22" fill="none" xmlns="http://www.w3.org/2000/svg">
<path d="M23.3852 10.8695L23.3387 14.6076L20.8203 14.5935L20.9385 5.03931L26.2896 5.06846L26.2739 6.34813L23.4411 6.33237L23.4001 9.62214L26.2329 9.6379L26.2896 5.06846L28.845 5.08265L28.7725 10.8979L23.3852 10.8695Z" fill="white"/>
<path d="M36.8797 12.0895L32.196 12.0635L32.1787 13.459L37.1515 13.4866L36.6212 14.6473L29.7344 14.6095L29.8179 7.89673L34.5016 7.92273L34.4866 9.14803L32.233 9.14015L32.2118 10.8351L34.4653 10.8477L34.5016 7.92352L36.9317 7.93691L36.8797 12.0895Z" fill="white"/>
<path d="M38.1455 14.6732L38.229 7.96045L45.3673 7.99985L44.9118 9.19362L40.6316 9.16998L40.578 13.4896L45.2743 13.5156L44.7558 14.7094L38.1455 14.6732Z" fill="white"/>
<path d="M51.3614 10.8735L54.0452 14.7598L51.326 14.7448L48.7643 11.1414L48.7201 14.7306L46.29 14.7172L46.4082 5.16309L48.8383 5.17648L48.7745 10.3274L51.1699 8.03051L54.1792 8.04706L51.3614 10.8735Z" fill="white"/>
<path d="M63.6755 14.8294L55.1016 14.7821L55.1173 13.5363L61.1224 13.5694L61.1752 9.33251L63.7432 9.3467L63.6755 14.8294ZM57.7862 6.45563L57.7507 9.3136L61.1752 9.33251L61.1603 10.557L55.1804 10.5294L55.2458 5.22876L64.0962 5.27761L63.603 6.48794L57.7862 6.45563Z" fill="white"/>
<path d="M67.484 9.31732L67.4155 14.8339L64.9854 14.8205L65.1035 5.26636L67.5336 5.27975L67.4982 8.12118L69.777 8.13378L69.762 9.32598L67.484 9.31732ZM72.1362 14.8591L69.6943 14.8457L69.7778 8.133L72.2197 8.14639L72.1362 14.8591Z" fill="white"/>
<path d="M75.5737 14.8781L73.1436 14.8647L73.2271 8.15197L75.6572 8.16536L75.5737 14.8781ZM73.2625 5.31055L75.6926 5.32394L75.6674 7.38449L73.2373 7.37109L73.2625 5.31055Z" fill="white"/>
<path d="M83.7264 12.3637L79.0427 12.3377L79.0253 13.7332L83.9982 13.7608L83.4679 14.9214L76.5811 14.8836L76.6646 8.1709L81.3483 8.1969L81.3333 9.4222L79.0797 9.41432L79.0584 11.1092L81.312 11.1218L81.3483 8.19769L83.7784 8.21109L83.7264 12.3637Z" fill="white"/>
<path d="M87.4962 14.9435L84.9912 14.9301L85.1094 5.37598L87.6144 5.38937L87.4962 14.9435Z" fill="white"/>
<path d="M95.8234 5.4341L95.7052 14.9883L88.5039 14.9489L88.5874 8.23613L93.3586 8.26213L93.3436 9.45433L91.0018 9.44566L90.9482 13.7653L93.29 13.7779L93.3586 8.26134L93.3941 5.41992L95.8234 5.4341Z" fill="white"/>
<path d="M13.5372 10.667C13.5372 10.667 14.1597 11.388 14.5648 12.7433C14.731 13.2996 11.4996 14.725 11.4996 14.725C11.4996 14.725 12.9809 13.4462 11.6225 12.7914C10.264 12.1366 8.80155 12.7023 7.83155 8.96418C7.69602 8.44018 7.05383 8.23294 6.74967 8.23294C6.03341 8.23294 3.62064 9.22579 3.62064 9.22579C3.62064 9.22579 3.46856 9.47636 3.32594 9.61426C3.32594 9.61426 3.19356 9.74191 3.18253 9.75215C3.03912 9.89005 2.75229 10.0374 2.60967 10.0287C2.48044 10.0208 2.46626 10.0287 2.32285 9.89083C2.23223 9.80416 2.17944 9.61426 2.17944 9.47636C2.17944 9.16748 2.57106 9.01146 2.75229 8.92399C3.03912 8.7861 3.34012 8.7861 3.46856 8.92399C3.4788 8.93503 3.61197 9.06189 3.597 9.06189C3.597 9.06189 3.597 9.19978 4.02723 8.92399C4.66943 8.5111 6.09565 7.9083 6.35175 7.75071C6.42109 7.70816 6.47467 7.6459 6.50382 7.57105C6.57868 7.38036 6.75676 6.98401 7.03728 6.71374C7.3241 6.43716 8.18378 5.88479 9.32633 6.47656C11.3073 7.50171 11.4996 7.39297 11.4996 7.39297C11.4996 7.39297 11.9093 6.71374 13.0558 5.47111C14.1416 4.29388 15.3488 3.53743 15.3488 3.53743L15.779 4.78006C15.779 4.78006 16.1738 4.4822 17.5709 3.58313C17.5299 2.92202 16.8168 2.39487 15.9398 2.39487C15.9398 2.39487 10.9511 0.24292 9.29087 0.24292C7.63062 0.24292 2.65931 2.39487 2.65931 2.39487C1.75709 2.39487 1.02585 2.95275 1.02585 3.64065C1.02585 3.64065 0.943902 11.0846 1.73502 12.8063C2.86025 15.2522 9.29009 20.3716 9.29009 20.3716C9.29009 20.3716 15.5702 15.2979 16.8735 12.852C17.2383 12.1681 17.4235 10.5716 17.5141 8.8972C16.608 9.73797 15.3315 10.4007 13.5372 10.667Z" fill="url(#paint0_linear_10247_89272)"/>
<defs>
<linearGradient id="paint0_linear_10247_89272" x1="1.02316" y1="10.3085" x2="17.5698" y2="10.3085" gradientUnits="userSpaceOnUse">
<stop stop-color="#29ABE2"/>
<stop offset="0.5" stop-color="#29ABE2"/>
<stop offset="0.5226" stop-color="#239BD3"/>
<stop offset="0.5642" stop-color="#1A84BD"/>
<stop offset="0.6086" stop-color="#1373AD"/>
<stop offset="0.6577" stop-color="#0F69A4"/>
<stop offset="0.7202" stop-color="#0E66A1"/>
<stop offset="0.9944" stop-color="#0661A1"/>
</linearGradient>
</defs>
</svg>