<svg width="26" height="26" viewBox="0 0 26 26" fill="none" xmlns="http://www.w3.org/2000/svg">
<path d="M22.0038 13.75C22.4181 13.75 22.7538 13.4142 22.7538 13C22.7538 12.5858 22.4181 12.25 22.0038 12.25V13.75ZM19.0026 12.25C18.5884 12.25 18.2526 12.5858 18.2526 13C18.2526 13.4142 18.5884 13.75 19.0026 13.75V12.25ZM3.99634 12.25C3.58212 12.25 3.24634 12.5858 3.24634 13C3.24634 13.4142 3.58212 13.75 3.99634 13.75V12.25ZM6.99759 13.75C7.4118 13.75 7.74759 13.4142 7.74759 13C7.74759 12.5858 7.4118 12.25 6.99759 12.25V13.75ZM13.7501 3.99625C13.7501 3.58204 13.4143 3.24625 13.0001 3.24625C12.5859 3.24625 12.2501 3.58204 12.2501 3.99625H13.7501ZM12.2501 6.9975C12.2501 7.41172 12.5859 7.7475 13.0001 7.7475C13.4143 7.7475 13.7501 7.41172 13.7501 6.9975H12.2501ZM12.2501 22.0038C12.2501 22.418 12.5859 22.7538 13.0001 22.7538C13.4143 22.7538 13.7501 22.418 13.7501 22.0038H12.2501ZM13.7501 19.0025C13.7501 18.5883 13.4143 18.2525 13.0001 18.2525C12.5859 18.2525 12.2501 18.5883 12.2501 19.0025H13.7501ZM18.8364 19.897C19.1293 20.1899 19.6042 20.1899 19.8971 19.897C20.19 19.6041 20.19 19.1292 19.8971 18.8363L18.8364 19.897ZM17.7752 16.7144C17.4823 16.4215 17.0074 16.4215 16.7145 16.7144C16.4216 17.0073 16.4216 17.4822 16.7145 17.7751L17.7752 16.7144ZM7.16377 6.10302C6.87087 5.81013 6.396 5.81013 6.10311 6.10302C5.81021 6.39592 5.81021 6.87079 6.10311 7.16368L7.16377 6.10302ZM8.22499 9.28557C8.51788 9.57846 8.99276 9.57846 9.28565 9.28557C9.57854 8.99267 9.57854 8.5178 9.28565 8.22491L8.22499 9.28557ZM16.7145 8.22491C16.4216 8.5178 16.4216 8.99267 16.7145 9.28557C17.0074 9.57846 17.4823 9.57846 17.7752 9.28557L16.7145 8.22491ZM19.8971 7.16368C20.19 6.87079 20.19 6.39592 19.8971 6.10302C19.6042 5.81013 19.1293 5.81013 18.8364 6.10302L19.8971 7.16368ZM9.28565 17.7751C9.57854 17.4822 9.57854 17.0073 9.28565 16.7144C8.99276 16.4215 8.51788 16.4215 8.22499 16.7144L9.28565 17.7751ZM6.10311 18.8363C5.81021 19.1292 5.81021 19.6041 6.10311 19.897C6.396 20.1899 6.87087 20.1899 7.16377 19.897L6.10311 18.8363ZM22.0038 12.25H19.0026V13.75H22.0038V12.25ZM3.99634 13.75H6.99759V12.25H3.99634V13.75ZM12.2501 3.99625V6.9975H13.7501V3.99625H12.2501ZM13.7501 22.0038V19.0025H12.2501V22.0038H13.7501ZM19.8971 18.8363L17.7752 16.7144L16.7145 17.7751L18.8364 19.897L19.8971 18.8363ZM6.10311 7.16368L8.22499 9.28557L9.28565 8.22491L7.16377 6.10302L6.10311 7.16368ZM17.7752 9.28557L19.8971 7.16368L18.8364 6.10302L16.7145 8.22491L17.7752 9.28557ZM8.22499 16.7144L6.10311 18.8363L7.16377 19.897L9.28565 17.7751L8.22499 16.7144Z" fill="#EAB308"/>
</svg>
