<svg width="25" height="24" viewBox="0 0 25 24" fill="none" xmlns="http://www.w3.org/2000/svg">
  <path d="M17.9288 12.1235L12.5321 16.4409C12.3399 16.5946 12.0978 16.6721 11.8521 16.6585C11.6064 16.6449 11.3743 16.5411 11.2003 16.3671L8.46605 13.6329C8.29203 13.4589 8.1883 13.2268 8.17469 12.9811C8.16108 12.7354 8.23855 12.4933 8.39229 12.3011L12.7097 6.90434C13.6843 5.68606 14.9205 4.70259 16.3266 4.02675C17.7328 3.35091 19.273 3 20.8332 3C21.0984 3 21.3527 3.10536 21.5403 3.29289C21.7278 3.48043 21.8332 3.73478 21.8332 4C21.8332 5.56016 21.4823 7.10034 20.8064 8.50651C20.1306 9.91269 19.1471 11.1488 17.9288 12.1235Z" stroke="currentColor" stroke-width="1.25" stroke-linecap="round" stroke-linejoin="round"/>
  <path d="M16.8333 13V17.382C16.8333 17.5677 16.7816 17.7498 16.684 17.9077C16.5863 18.0657 16.4466 18.1934 16.2805 18.2764L13.8646 19.4844C13.7364 19.5485 13.596 19.5843 13.4528 19.5894C13.3097 19.5944 13.1671 19.5687 13.0347 19.5139C12.9023 19.459 12.7833 19.3764 12.6856 19.2716C12.588 19.1667 12.514 19.0421 12.4687 18.9062L11.8333 17" stroke="currentColor" stroke-width="1.25" stroke-linecap="round" stroke-linejoin="round"/>
  <path d="M7.8334 13L5.92724 12.3646C5.79132 12.3193 5.66672 12.2453 5.56189 12.1477C5.45705 12.05 5.37442 11.931 5.31959 11.7986C5.26476 11.6662 5.23902 11.5236 5.2441 11.3805C5.24918 11.2373 5.28497 11.0969 5.34904 10.9687L6.55704 8.55279C6.64009 8.38669 6.76774 8.247 6.92571 8.14937C7.08367 8.05173 7.2657 8.00001 7.4514 8H11.8334" stroke="currentColor" stroke-width="1.25" stroke-linecap="round" stroke-linejoin="round"/>
  <path d="M6.58341 20.5869L3.83331 21L4.24646 18.2499C4.31175 17.8153 4.51467 17.4131 4.82542 17.1024C5.13616 16.7916 5.53837 16.5887 5.97295 16.5234V16.5234C6.29085 16.4757 6.61553 16.5031 6.92087 16.6037C7.22621 16.7043 7.50369 16.8751 7.73101 17.1024C7.95832 17.3297 8.12912 17.6072 8.22967 17.9125C8.33022 18.2178 8.35772 18.5425 8.30995 18.8604V18.8604C8.24465 19.295 8.04172 19.6972 7.73097 20.0079C7.42021 20.3187 7.018 20.5216 6.58341 20.5869V20.5869Z" stroke="currentColor" stroke-width="1.25" stroke-linecap="round" stroke-linejoin="round"/>
</svg>
