<svg width="20" height="20" viewBox="0 0 20 20" fill="none" xmlns="http://www.w3.org/2000/svg">
<path d="M10.6668 2.5C10.8384 2.50003 11.0058 2.55303 11.1461 2.65176C11.2865 2.7505 11.3929 2.89016 11.4509 3.05167L11.8743 4.23083C11.9415 4.41626 12.0719 4.57206 12.2426 4.67083L13.4984 5.39583C13.669 5.49423 13.8688 5.52906 14.0626 5.49417L15.2959 5.27167C15.4649 5.24093 15.6393 5.26319 15.7952 5.33539C15.9511 5.40759 16.0809 5.52621 16.1668 5.675L16.8334 6.825C16.9195 6.9734 16.9577 7.14476 16.9428 7.31568C16.9279 7.48661 16.8606 7.64876 16.7501 7.78L15.9409 8.73667C15.8135 8.8871 15.7435 9.07784 15.7434 9.275V10.725C15.7435 10.9222 15.8135 11.1129 15.9409 11.2633L16.7501 12.22C16.8606 12.3512 16.9279 12.5134 16.9428 12.6843C16.9577 12.8552 16.9195 13.0266 16.8334 13.175L16.1668 14.325C16.0809 14.4736 15.9513 14.5922 15.7956 14.6643C15.6399 14.7365 15.4657 14.7589 15.2968 14.7283L14.0634 14.5058C13.8697 14.4709 13.6698 14.5058 13.4993 14.6042L12.2434 15.3292C12.0727 15.4279 11.9423 15.5837 11.8751 15.7692L11.4518 16.9483C11.3937 17.11 11.2871 17.2497 11.1466 17.3485C11.0061 17.4472 10.8385 17.5001 10.6668 17.5H9.33342C9.16182 17.5 8.99441 17.447 8.85406 17.3482C8.71371 17.2495 8.60726 17.1098 8.54926 16.9483L8.12592 15.7692C8.05875 15.584 7.92868 15.4283 7.75842 15.3292L6.50176 14.6042C6.33122 14.5058 6.13136 14.4709 5.93759 14.5058L4.70426 14.7283C4.53523 14.7591 4.36084 14.7368 4.20495 14.6646C4.04906 14.5924 3.9193 14.4738 3.83342 14.325L3.16676 13.175C3.08065 13.0266 3.04244 12.8552 3.05735 12.6843C3.07227 12.5134 3.13958 12.3512 3.25009 12.22L4.05926 11.2633C4.1867 11.1129 4.25668 10.9222 4.25676 10.725V9.275C4.25668 9.07784 4.1867 8.8871 4.05926 8.73667L3.25842 7.78C3.14791 7.64876 3.0806 7.48661 3.06569 7.31568C3.05077 7.14476 3.08898 6.9734 3.17509 6.825L3.84176 5.675C3.92758 5.52636 4.05721 5.40785 4.21293 5.33565C4.36865 5.26346 4.54286 5.24112 4.71176 5.27167L5.94509 5.49417C6.13886 5.52906 6.33872 5.49423 6.50926 5.39583L7.76592 4.67083C7.93618 4.57175 8.06625 4.41602 8.13342 4.23083L8.55676 3.05167C8.61432 2.89136 8.71962 2.75254 8.85849 2.65391C8.99735 2.55527 9.1631 2.50156 9.33342 2.5H10.6668Z" stroke="currentColor" stroke-width="1.25" stroke-linecap="round" stroke-linejoin="round"/>
<path d="M9.99992 12.2916C11.2656 12.2916 12.2916 11.2656 12.2916 9.99998C12.2916 8.73433 11.2656 7.70831 9.99992 7.70831C8.73427 7.70831 7.70825 8.73433 7.70825 9.99998C7.70825 11.2656 8.73427 12.2916 9.99992 12.2916Z" stroke="currentColor" stroke-width="1.25" stroke-linecap="round" stroke-linejoin="round"/>
</svg>
