<svg width="14" height="13" viewBox="0 0 14 13" fill="none" xmlns="http://www.w3.org/2000/svg">
<path d="M11 1.83325H13" stroke="currentColor" stroke-linecap="round" stroke-linejoin="round"/>
<path d="M1 1.83325H8.33333" stroke="currentColor" stroke-linecap="round" stroke-linejoin="round"/>
<path d="M5.66699 6.5H13.0003" stroke="currentColor" stroke-linecap="round" stroke-linejoin="round"/>
<path d="M1 6.5H3" stroke="currentColor" stroke-linecap="round" stroke-linejoin="round"/>
<path d="M11 11.1667H13" stroke="currentColor" stroke-linecap="round" stroke-linejoin="round"/>
<path d="M1 11.1667H8.33333" stroke="currentColor" stroke-linecap="round" stroke-linejoin="round"/>
<path d="M10.6092 0.890525C11.1299 1.41122 11.1299 2.25544 10.6092 2.77614C10.0885 3.29684 9.24423 3.29684 8.72353 2.77614C8.20283 2.25545 8.20283 1.41122 8.72353 0.890525C9.24423 0.369825 10.0885 0.369825 10.6092 0.890525Z" stroke="currentColor" stroke-linecap="round" stroke-linejoin="round"/>
<path d="M5.27614 5.55727C5.79684 6.07797 5.79684 6.92219 5.27614 7.44289C4.75545 7.96359 3.91122 7.96359 3.39052 7.44289C2.86983 6.92219 2.86983 6.07797 3.39052 5.55727C3.91122 5.03657 4.75544 5.03657 5.27614 5.55727" stroke="currentColor" stroke-linecap="round" stroke-linejoin="round"/>
<path d="M10.6092 10.2238C11.1299 10.7445 11.1299 11.5887 10.6092 12.1094C10.0885 12.6301 9.24423 12.6301 8.72353 12.1094C8.20283 11.5887 8.20283 10.7445 8.72353 10.2238C9.24423 9.70308 10.0885 9.70308 10.6092 10.2238Z" stroke="currentColor" stroke-linecap="round" stroke-linejoin="round"/>
</svg>
