<svg width="21" height="20" viewBox="0 0 21 20" fill="none" xmlns="http://www.w3.org/2000/svg">
  <path fill-rule="evenodd" clip-rule="evenodd" d="M5.66431 2.49687C5.66431 4.33859 4.17131 5.8316 2.32959 5.8316C4.17131 5.8316 5.66431 7.3246 5.66431 9.16632C5.66431 7.3246 7.15732 5.8316 8.99903 5.8316C7.15732 5.8316 5.66431 4.33859 5.66431 2.49687Z" stroke="currentColor" stroke-width="1.5" stroke-linecap="round" stroke-linejoin="round"/>
  <path fill-rule="evenodd" clip-rule="evenodd" d="M14.8349 12.501C14.8349 10.1989 12.9686 8.33264 10.6665 8.33264C12.9686 8.33264 14.8349 6.46638 14.8349 4.16424C14.8349 6.46638 16.7012 8.33264 19.0033 8.33264C16.7012 8.33264 14.8349 10.1989 14.8349 12.501Z" stroke="currentColor" stroke-width="1.5" stroke-linecap="round" stroke-linejoin="round"/>
  <path d="M14.8348 12.501V13.3347" stroke="currentColor" stroke-width="1.5" stroke-linecap="round" stroke-linejoin="round"/>
  <path d="M14.8348 4.16424V3.33055" stroke="currentColor" stroke-width="1.5" stroke-linecap="round" stroke-linejoin="round"/>
  <path d="M8.99887 17.5031V18.3368" stroke="currentColor" stroke-width="1.5" stroke-linecap="round" stroke-linejoin="round"/>
  <path d="M8.99887 11.6674V10.8337" stroke="currentColor" stroke-width="1.5" stroke-linecap="round" stroke-linejoin="round"/>
  <path d="M5.6644 9.16632V10" stroke="currentColor" stroke-width="1.5" stroke-linecap="round" stroke-linejoin="round"/>
  <path d="M5.6644 1.66319V2.49688" stroke="currentColor" stroke-width="1.5" stroke-linecap="round" stroke-linejoin="round"/>
  <path fill-rule="evenodd" clip-rule="evenodd" d="M8.99879 11.2505C8.99879 13.0922 7.50578 14.5852 5.66406 14.5852C7.50578 14.5852 8.99879 16.0782 8.99879 17.92C8.99879 16.0782 10.4918 14.5852 12.3335 14.5852C10.4918 14.5852 8.99879 13.0922 8.99879 11.2505Z" stroke="currentColor" stroke-width="1.5" stroke-linecap="round" stroke-linejoin="round"/>
</svg>
