<svg width="24" height="24" viewBox="0 0 24 24" fill="none" xmlns="http://www.w3.org/2000/svg">
<path fill-rule="evenodd" clip-rule="evenodd" d="M7 22C10.025 22 12.501 19.525 12.501 16.501C12.501 13.477 10.025 11 7 11C3.975 11 1.5 13.475 1.5 16.501C1.5 17.735 1.917 18.873 2.609 19.793C3.616 21.129 5.21 22 7 22Z" stroke="currentColor" stroke-width="1.5" stroke-linecap="round" stroke-linejoin="round"/>
<path d="M14.85 19.871H16.479C18.727 19.871 20.55 18.048 20.55 15.8" stroke="currentColor" stroke-width="1.5" stroke-linecap="round" stroke-linejoin="round"/>
<path d="M9.15001 4.12903H7.52101C5.27301 4.12903 3.45001 5.95203 3.45001 8.20003" stroke="currentColor" stroke-width="1.5" stroke-linecap="round" stroke-linejoin="round"/>
<path d="M7.92902 2.90698L9.15002 4.12898L7.92902 5.34998" stroke="currentColor" stroke-width="1.5" stroke-linecap="round" stroke-linejoin="round"/>
<path d="M22.5 7.5C22.5 10.538 20.038 13 17 13C13.962 13 11.5 10.538 11.5 7.5C11.5 4.462 13.962 2 17 2C20.037 2 22.5 4.462 22.5 7.5" stroke="currentColor" stroke-width="1.5" stroke-linecap="round" stroke-linejoin="round"/>
<path d="M16.071 21.093L14.85 19.872L16.071 18.651" stroke="currentColor" stroke-width="1.5" stroke-linecap="round" stroke-linejoin="round"/>
</svg>
