<svg width="28" height="28" viewBox="0 0 28 28" fill="none" xmlns="http://www.w3.org/2000/svg">
<path d="M13.9533 4C11.3093 4.01234 8.7777 5.07136 6.91241 6.94538C5.04713 8.81941 3.99997 11.3559 4 14C4 16.6522 5.05357 19.1957 6.92893 21.0711C8.8043 22.9464 11.3478 24 14 24C16.6522 24 19.1957 22.9464 21.0711 21.0711C22.9464 19.1957 24 16.6522 24 14C24 11.3478 22.9464 8.8043 21.0711 6.92894C19.1957 5.05357 16.6522 4 14 4C13.9844 3.99997 13.9689 3.99997 13.9533 4V4ZM18.0883 10.02C18.1717 10.0183 18.3558 10.0392 18.4758 10.1367C18.5556 10.2059 18.6064 10.3026 18.6183 10.4075C18.6317 10.485 18.6483 10.6625 18.635 10.8008C18.485 12.3825 17.8333 16.2192 17.5017 17.99C17.3617 18.74 17.0858 18.9908 16.8183 19.015C16.2383 19.0692 15.7975 18.6317 15.235 18.2633C14.355 17.6858 13.8575 17.3267 13.0033 16.7633C12.0158 16.1133 12.6558 15.755 13.2183 15.1717C13.3658 15.0183 15.9242 12.6908 15.9742 12.48C15.98 12.4533 15.9858 12.355 15.9275 12.3033C15.8692 12.2517 15.7825 12.2692 15.72 12.2833C15.6317 12.3033 14.2258 13.2333 11.5025 15.0708C11.1025 15.3458 10.7417 15.4792 10.4175 15.4708C10.0608 15.4642 9.37417 15.27 8.86333 15.1042C8.23667 14.9 7.73917 14.7925 7.7825 14.4467C7.805 14.2667 8.05333 14.0825 8.52667 13.8942C11.4417 12.6242 13.385 11.7867 14.3583 11.3825C17.135 10.2275 17.7125 10.0267 18.0883 10.02V10.02Z" fill="currentColor"/>
</svg>