<svg width="40" height="40" viewBox="0 0 24 25" fill="none" xmlns="http://www.w3.org/2000/svg">
<path d="M13.9092 10.5908C14.9637 11.6452 14.9637 13.3548 13.9092 14.4092C12.8548 15.4636 11.1453 15.4636 10.0909 14.4092C9.03644 13.3548 9.03644 11.6452 10.0909 10.5908C11.1453 9.53638 12.8548 9.53638 13.9092 10.5908" stroke="currentColor" stroke-width="1.5" stroke-linecap="round" stroke-linejoin="round"/>
<path d="M5.24999 12.5C5.24999 12.797 5.27699 13.094 5.31299 13.382L3.72499 14.624C3.37299 14.9 3.27699 15.393 3.50099 15.78L4.91299 18.223C5.13599 18.61 5.60999 18.773 6.02499 18.607L7.44699 18.036C7.72799 17.923 8.04099 17.968 8.29299 18.135C8.51299 18.281 8.74099 18.415 8.97699 18.535C9.24699 18.672 9.44299 18.917 9.48599 19.217L9.70299 20.73C9.76599 21.172 10.145 21.5 10.591 21.5H13.408C13.854 21.5 14.233 21.172 14.296 20.73L14.513 19.218C14.556 18.918 14.754 18.671 15.025 18.535C15.26 18.417 15.487 18.284 15.706 18.139C15.96 17.971 16.274 17.923 16.556 18.037L17.975 18.607C18.389 18.773 18.863 18.61 19.087 18.223L20.499 15.78C20.723 15.393 20.627 14.899 20.275 14.624L18.687 13.382C18.723 13.094 18.75 12.797 18.75 12.5C18.75 12.203 18.723 11.906 18.687 11.618L20.275 10.376C20.627 10.1 20.723 9.607 20.499 9.22L19.087 6.777C18.864 6.39 18.39 6.227 17.975 6.393L16.556 6.963C16.274 7.076 15.96 7.029 15.706 6.861C15.487 6.716 15.26 6.583 15.025 6.465C14.754 6.329 14.556 6.082 14.513 5.782L14.297 4.27C14.234 3.828 13.855 3.5 13.409 3.5H10.592C10.146 3.5 9.76699 3.828 9.70399 4.27L9.48599 5.784C9.44299 6.083 9.24599 6.329 8.97699 6.466C8.74099 6.586 8.51299 6.721 8.29299 6.866C8.03999 7.032 7.72699 7.077 7.44599 6.964L6.02499 6.393C5.60999 6.227 5.13599 6.39 4.91299 6.777L3.50099 9.22C3.27699 9.607 3.37299 10.101 3.72499 10.376L5.31299 11.618C5.27699 11.906 5.24999 12.203 5.24999 12.5V12.5Z" stroke="currentColor" stroke-width="1.5" stroke-linecap="round" stroke-linejoin="round"/>
</svg>
