<svg width="24" height="24" viewBox="0 0 24 24" fill="none" xmlns="http://www.w3.org/2000/svg">
<path d="M12 20.0033C14.9314 20.0036 17.6284 18.4012 19.0299 15.8266" stroke="#60E6C5" stroke-width="1.5" stroke-linecap="round" stroke-linejoin="round"/>
<path d="M20.0033 12C20.0033 7.57986 16.4201 3.99664 12 3.99664" stroke="#60E6C5" stroke-width="1.5" stroke-linecap="round" stroke-linejoin="round"/>
<path d="M12 3.99664C9.06863 3.9964 6.37166 5.59877 4.97009 8.17338" stroke="#60E6C5" stroke-width="1.5" stroke-linecap="round" stroke-linejoin="round"/>
<path d="M3.99664 12C3.99664 16.4201 7.57986 20.0033 12 20.0033" stroke="#60E6C5" stroke-width="1.5" stroke-linecap="round" stroke-linejoin="round"/>
<path d="M4.97009 8.17341C6.71956 4.95839 10.4272 3.33988 13.9743 4.24276C17.5213 5.14564 20.0039 8.33981 20.0034 12" stroke="#60E6C5" stroke-width="1.5" stroke-linecap="round" stroke-linejoin="round"/>
<path d="M3.99664 12C3.99608 15.6602 6.47866 18.8544 10.0257 19.7572C13.5728 20.6601 17.2804 19.0416 19.0299 15.8266" stroke="#60E6C5" stroke-width="1.5" stroke-linecap="round" stroke-linejoin="round"/>
<path d="M8.04532 8.1734H4.50885V4.63593" stroke="#60E6C5" stroke-width="1.5" stroke-linecap="round" stroke-linejoin="round"/>
<path d="M15.9547 15.8266H19.4911V19.3641" stroke="#60E6C5" stroke-width="1.5" stroke-linecap="round" stroke-linejoin="round"/>
</svg>
