<svg width="24" height="24" viewBox="0 0 24 24" fill="none" xmlns="http://www.w3.org/2000/svg">
<path d="M7.415 20.415L3.586 16.586C3.211 16.211 3 15.702 3 15.172V8.828C3 8.298 3.211 7.789 3.585 7.415L7.414 3.586C7.789 3.211 8.298 3 8.828 3H15.17C15.701 3 16.21 3.211 16.585 3.586L20.413 7.414C20.789 7.79 21 8.3 21 8.831V15.171C21 15.701 20.789 16.209 20.415 16.584L16.586 20.414C16.211 20.789 15.702 21 15.171 21H8.828C8.298 21 7.789 20.789 7.415 20.415Z" stroke="#F82F2F" stroke-width="1.5" stroke-linecap="round" stroke-linejoin="round"/>
<path d="M5.75098 18.249L18.249 5.75098" stroke="#F82F2F" stroke-width="1.5" stroke-linecap="round" stroke-linejoin="round"/>
</svg>
