<svg width="20" height="20" viewBox="0 0 20 20" fill="none" xmlns="http://www.w3.org/2000/svg">
<path d="M19.0036 10.75C19.4178 10.75 19.7536 10.4142 19.7536 9.99997C19.7536 9.58575 19.4178 9.24997 19.0036 9.24997V10.75ZM16.0024 9.24997C15.5882 9.24997 15.2524 9.58575 15.2524 9.99997C15.2524 10.4142 15.5882 10.75 16.0024 10.75V9.24997ZM0.996124 9.24997C0.581911 9.24997 0.246124 9.58575 0.246124 9.99997C0.246124 10.4142 0.581911 10.75 0.996124 10.75V9.24997ZM3.99737 10.75C4.41159 10.75 4.74737 10.4142 4.74737 9.99997C4.74737 9.58575 4.41159 9.24997 3.99737 9.24997V10.75ZM10.7499 0.996216C10.7499 0.582002 10.4141 0.246216 9.99987 0.246216C9.58566 0.246216 9.24987 0.582002 9.24987 0.996216H10.7499ZM9.24987 3.99747C9.24987 4.41168 9.58566 4.74747 9.99987 4.74747C10.4141 4.74747 10.7499 4.41168 10.7499 3.99747H9.24987ZM9.24987 19.0037C9.24987 19.4179 9.58566 19.7537 9.99987 19.7537C10.4141 19.7537 10.7499 19.4179 10.7499 19.0037H9.24987ZM10.7499 16.0025C10.7499 15.5883 10.4141 15.2525 9.99987 15.2525C9.58566 15.2525 9.24987 15.5883 9.24987 16.0025H10.7499ZM15.8362 16.8969C16.1291 17.1898 16.604 17.1898 16.8969 16.8969C17.1897 16.6041 17.1897 16.1292 16.8969 15.8363L15.8362 16.8969ZM14.775 13.7144C14.4821 13.4215 14.0072 13.4215 13.7143 13.7144C13.4214 14.0073 13.4214 14.4822 13.7143 14.7751L14.775 13.7144ZM4.16355 3.10298C3.87066 2.81009 3.39579 2.81009 3.10289 3.10298C2.81 3.39588 2.81 3.87075 3.10289 4.16364L4.16355 3.10298ZM5.22478 6.28553C5.51767 6.57842 5.99254 6.57842 6.28544 6.28553C6.57833 5.99263 6.57833 5.51776 6.28544 5.22487L5.22478 6.28553ZM13.7143 5.22487C13.4214 5.51776 13.4214 5.99263 13.7143 6.28553C14.0072 6.57842 14.4821 6.57842 14.775 6.28553L13.7143 5.22487ZM16.8969 4.16364C17.1897 3.87075 17.1897 3.39588 16.8969 3.10298C16.604 2.81009 16.1291 2.81009 15.8362 3.10298L16.8969 4.16364ZM6.28544 14.7751C6.57833 14.4822 6.57833 14.0073 6.28544 13.7144C5.99254 13.4215 5.51767 13.4215 5.22478 13.7144L6.28544 14.7751ZM3.10289 15.8363C2.81 16.1292 2.81 16.6041 3.10289 16.8969C3.39579 17.1898 3.87066 17.1898 4.16355 16.8969L3.10289 15.8363ZM19.0036 9.24997H16.0024V10.75H19.0036V9.24997ZM0.996124 10.75H3.99737V9.24997H0.996124V10.75ZM9.24987 0.996216V3.99747H10.7499V0.996216H9.24987ZM10.7499 19.0037V16.0025H9.24987V19.0037H10.7499ZM16.8969 15.8363L14.775 13.7144L13.7143 14.7751L15.8362 16.8969L16.8969 15.8363ZM3.10289 4.16364L5.22478 6.28553L6.28544 5.22487L4.16355 3.10298L3.10289 4.16364ZM14.775 6.28553L16.8969 4.16364L15.8362 3.10298L13.7143 5.22487L14.775 6.28553ZM5.22478 13.7144L3.10289 15.8363L4.16355 16.8969L6.28544 14.7751L5.22478 13.7144Z" fill="#EAB308"/>
</svg>
