<svg width="28" height="28" viewBox="0 0 28 28" fill="none" xmlns="http://www.w3.org/2000/svg">
<g clip-path="url(#clip0_6705_62771)">
<path d="M23.9608 7.80832C23.2121 8.138 22.4188 8.35561 21.6067 8.45416C22.4618 7.9402 23.102 7.1342 23.4092 6.18499C22.6167 6.64749 21.7383 6.98416 20.8033 7.17166C20.1865 6.51202 19.3691 6.07451 18.478 5.92708C17.587 5.77964 16.6722 5.93053 15.8758 6.35632C15.0793 6.7821 14.4457 7.45895 14.0734 8.28176C13.701 9.10457 13.6108 10.0273 13.8167 10.9067C10.4083 10.7458 7.38917 9.10832 5.36667 6.63499C4.99899 7.25984 4.80722 7.97251 4.81167 8.69749C4.81167 10.1225 5.53667 11.375 6.635 12.1108C5.98405 12.0901 5.34748 11.9141 4.77833 11.5975V11.6475C4.77796 12.5945 5.10522 13.5124 5.70459 14.2456C6.30395 14.9788 7.13851 15.4821 8.06667 15.67C7.46525 15.8311 6.83534 15.8553 6.22333 15.7408C6.48677 16.5558 6.99805 17.2683 7.68585 17.7787C8.37364 18.2892 9.20363 18.5722 10.06 18.5883C8.60961 19.7266 6.81873 20.3444 4.975 20.3425C4.65 20.3425 4.32583 20.3233 4 20.2867C5.87976 21.4903 8.06543 22.1292 10.2975 22.1275C17.8417 22.1275 21.9625 15.8808 21.9625 10.4733C21.9625 10.2983 21.9625 10.1233 21.95 9.94832C22.755 9.36904 23.4494 8.64984 24 7.82499L23.9608 7.80832Z" fill="currentColor"/>
</g>
<defs>
<clipPath id="clip0_6705_62771">
<rect width="20" height="20" fill="currentColor" transform="translate(4 4)"/>
</clipPath>
</defs>
</svg>
