<svg width="20" height="20" viewBox="0 0 20 20" fill="currentColor" xmlns="http://www.w3.org/2000/svg">
<path d="M9.99744 14.5833C9.76828 14.5833 9.58078 14.7708 9.58328 15C9.58328 15.2292 9.77078 15.4167 9.99994 15.4167C10.2291 15.4167 10.4166 15.2292 10.4166 15C10.4166 14.7708 10.2291 14.5833 9.99744 14.5833Z" stroke="currentColor" stroke-width="1.5" stroke-linecap="round" stroke-linejoin="round"/>
<path d="M9.99744 9.58333C9.76828 9.58333 9.58078 9.77083 9.58328 9.99999C9.58328 10.2292 9.77078 10.4167 9.99994 10.4167C10.2291 10.4167 10.4166 10.2292 10.4166 9.99999C10.4166 9.77083 10.2291 9.58333 9.99744 9.58333Z" stroke="currentColor" stroke-width="1.5" stroke-linecap="round" stroke-linejoin="round"/>
<path d="M9.99744 4.58333C9.76828 4.58333 9.58078 4.77083 9.58328 4.99999C9.58328 5.22916 9.77078 5.41666 9.99994 5.41666C10.2291 5.41666 10.4166 5.22916 10.4166 4.99999C10.4166 4.77083 10.2291 4.58333 9.99744 4.58333Z" stroke="currentColor" stroke-width="1.5" stroke-linecap="round" stroke-linejoin="round"/>
</svg>
