<svg width="28" height="28" viewBox="0 0 28 28" fill="none" xmlns="http://www.w3.org/2000/svg">
<path d="M23.5817 9.15506C23.4687 8.72945 23.2459 8.341 22.9355 8.02861C22.6252 7.71622 22.2382 7.49084 21.8133 7.37506C20.2542 6.95422 14 6.95422 14 6.95422C14 6.95422 7.74583 6.95422 6.18583 7.37506C5.76117 7.49105 5.37441 7.7165 5.06423 8.02888C4.75405 8.34125 4.53133 8.72959 4.41833 9.15506C4 10.7251 4 14.0001 4 14.0001C4 14.0001 4 17.2751 4.41833 18.8451C4.53132 19.2707 4.75415 19.6591 5.06449 19.9715C5.37484 20.2839 5.76181 20.5093 6.18667 20.6251C7.74583 21.0459 14 21.0459 14 21.0459C14 21.0459 20.2542 21.0459 21.8142 20.6251C22.2391 20.5094 22.6261 20.284 22.9364 19.9716C23.2468 19.6592 23.4696 19.2707 23.5825 18.8451C24 17.2751 24 14.0001 24 14.0001C24 14.0001 24 10.7251 23.5817 9.15506ZM11.9542 16.9734V11.0267L17.1817 14.0001L11.9542 16.9734Z" fill="currentColor"/>
</svg>
