<svg width="56" height="18" viewBox="0 0 56 18" fill="none" xmlns="http://www.w3.org/2000/svg">
<path d="M0 17.199V14.5095L3.92118 2.66689H0.565011V0.192139H6.62194V2.66689L2.64425 14.7242H6.62194V17.199H0Z" fill="white"/>
<path d="M10.134 13.9106V13.7072V3.68387C10.134 3.63114 10.134 3.56334 10.134 3.48047C10.1416 3.39007 10.1641 3.2168 10.2018 2.96066C10.247 2.70452 10.3073 2.45968 10.3826 2.22614C10.458 1.99261 10.5785 1.73647 10.7442 1.45773C10.91 1.17146 11.102 0.926621 11.3206 0.723214C11.5465 0.51981 11.8441 0.350307 12.2132 0.214704C12.5824 0.071568 12.9967 0 13.4563 0C13.9158 0 14.3302 0.0678015 14.6993 0.203404C15.0684 0.339007 15.3623 0.516043 15.5807 0.734516C15.8067 0.94545 16.0026 1.18275 16.1683 1.44643C16.3416 1.7101 16.4659 1.97377 16.5413 2.23744C16.6165 2.50111 16.673 2.74218 16.7107 2.96066C16.7559 3.17159 16.7785 3.34486 16.7785 3.48047L16.7899 3.68387V13.7072C16.7899 13.7599 16.7861 13.8315 16.7785 13.9218C16.7785 14.0048 16.7559 14.1742 16.7107 14.4304C16.673 14.6865 16.6165 14.9314 16.5413 15.1649C16.4659 15.3909 16.3454 15.647 16.1797 15.9333C16.0139 16.2121 15.818 16.4532 15.592 16.6566C15.366 16.86 15.0684 17.0332 14.6993 17.1764C14.3302 17.3119 13.9158 17.3798 13.4563 17.3798C12.9967 17.3798 12.5824 17.3119 12.2132 17.1764C11.8441 17.0407 11.5465 16.8675 11.3206 16.6566C11.102 16.438 10.91 16.197 10.7442 15.9333C10.5785 15.6696 10.458 15.4097 10.3826 15.1536C10.3073 14.8899 10.247 14.6526 10.2018 14.4417C10.1641 14.2232 10.1416 14.0462 10.134 13.9106ZM12.6313 13.7072C12.6313 13.7373 12.6313 13.7825 12.6313 13.8428C12.6313 13.8955 12.6427 13.9935 12.6653 14.1366C12.6954 14.2797 12.733 14.4078 12.7782 14.5208C12.831 14.6263 12.9139 14.7242 13.0269 14.8146C13.1474 14.905 13.2905 14.9502 13.4563 14.9502C13.622 14.9502 13.7614 14.9088 13.8744 14.8259C13.9949 14.7355 14.0816 14.63 14.1343 14.5095C14.1871 14.3889 14.2247 14.2684 14.2473 14.1479C14.2774 14.0273 14.2925 13.9218 14.2925 13.8315V13.7072V3.68387C14.2925 3.64621 14.2925 3.601 14.2925 3.54827C14.2925 3.49554 14.2774 3.3976 14.2473 3.25446C14.2247 3.10379 14.1871 2.97573 14.1343 2.87025C14.0816 2.75725 13.9949 2.65555 13.8744 2.56515C13.7614 2.47475 13.622 2.42955 13.4563 2.42955C13.1926 2.42955 12.9929 2.53502 12.8574 2.74595C12.7218 2.94936 12.6502 3.15653 12.6427 3.36747L12.6313 3.68387V13.7072Z" fill="white"/>
<path d="M20.7878 17.199V0.192139H23.2852V5.85355V6.59935H23.3756L23.4999 5.85355L25.5791 0.192139H28.0087L25.7148 5.78575L28.3138 17.199H25.873L24.144 9.79731L24.0762 9.44701H24.0084L23.8615 9.79731L23.2852 11.1872V17.199H20.7878Z" fill="white"/>
<path d="M31.3513 0.192139H33.8035L35.0578 5.62755L35.1256 6.24906H35.1709L35.2386 5.62755L36.493 0.192139H38.9451L36.4026 9.95551V17.199H33.9052V9.95551L31.3513 0.192139Z" fill="white"/>
<path d="M42.1182 13.9106V13.7072V3.68387C42.1182 3.63114 42.1182 3.56334 42.1182 3.48047C42.1257 3.39007 42.1483 3.2168 42.186 2.96066C42.2312 2.70452 42.2914 2.45968 42.3668 2.22614C42.4421 1.99261 42.5626 1.73647 42.7284 1.45773C42.8941 1.17146 43.0862 0.926621 43.3047 0.723214C43.5307 0.51981 43.8282 0.350307 44.1974 0.214704C44.5666 0.071568 44.9809 0 45.4405 0C45.9 0 46.3143 0.0678015 46.6835 0.203404C47.0526 0.339007 47.3464 0.516043 47.5648 0.734516C47.7909 0.94545 47.9867 1.18275 48.1525 1.44643C48.3257 1.7101 48.4501 1.97377 48.5254 2.23744C48.6007 2.50111 48.6572 2.74218 48.6949 2.96066C48.7401 3.17159 48.7627 3.34486 48.7627 3.48047L48.774 3.68387V13.7072C48.774 13.7599 48.7702 13.8315 48.7627 13.9218C48.7627 14.0048 48.7401 14.1742 48.6949 14.4304C48.6572 14.6865 48.6007 14.9314 48.5254 15.1649C48.4501 15.3909 48.3295 15.647 48.1638 15.9333C47.9981 16.2121 47.8022 16.4532 47.5762 16.6566C47.3502 16.86 47.0526 17.0332 46.6835 17.1764C46.3143 17.3119 45.9 17.3798 45.4405 17.3798C44.9809 17.3798 44.5666 17.3119 44.1974 17.1764C43.8282 17.0407 43.5307 16.8675 43.3047 16.6566C43.0862 16.438 42.8941 16.197 42.7284 15.9333C42.5626 15.6696 42.4421 15.4097 42.3668 15.1536C42.2914 14.8899 42.2312 14.6526 42.186 14.4417C42.1483 14.2232 42.1257 14.0462 42.1182 13.9106ZM44.6155 13.7072C44.6155 13.7373 44.6155 13.7825 44.6155 13.8428C44.6155 13.8955 44.6268 13.9935 44.6494 14.1366C44.6796 14.2797 44.7172 14.4078 44.7624 14.5208C44.8151 14.6263 44.898 14.7242 45.011 14.8146C45.1316 14.905 45.2747 14.9502 45.4405 14.9502C45.6062 14.9502 45.7456 14.9088 45.8585 14.8259C45.979 14.7355 46.0657 14.63 46.1184 14.5095C46.1712 14.3889 46.2089 14.2684 46.2314 14.1479C46.2616 14.0273 46.2766 13.9218 46.2766 13.8315V13.7072V3.68387C46.2766 3.64621 46.2766 3.601 46.2766 3.54827C46.2766 3.49554 46.2616 3.3976 46.2314 3.25446C46.2089 3.10379 46.1712 2.97573 46.1184 2.87025C46.0657 2.75725 45.979 2.65555 45.8585 2.56515C45.7456 2.47475 45.6062 2.42955 45.4405 2.42955C45.1768 2.42955 44.9771 2.53502 44.8415 2.74595C44.7059 2.94936 44.6344 3.15653 44.6268 3.36747L44.6155 3.68387V13.7072Z" fill="white"/>
<path d="M52.4443 17.1989V14.6338H54.8739V17.1989H52.4443Z" fill="#3FAFED"/>
</svg>
