<?xml version="1.0" standalone="no"?>
<!DOCTYPE svg PUBLIC "-//W3C//DTD SVG 20010904//EN"
 "http://www.w3.org/TR/2001/REC-SVG-20010904/DTD/svg10.dtd">
<svg version="1.0" xmlns="http://www.w3.org/2000/svg"
 width="270.000000pt" height="270.000000pt" viewBox="0 0 270.000000 270.000000"
 preserveAspectRatio="xMidYMid meet">
<metadata>
Created by potrace 1.14, written by Peter Selinger 2001-2017
</metadata>
<g transform="translate(0.000000,270.000000) scale(0.100000,-0.100000)"
fill="#000000" stroke="none">
<path d="M351 2684 c-117 -31 -237 -125 -293 -230 -59 -110 -58 -82 -58 -1109
0 -998 0 -987 48 -1081 58 -113 169 -207 289 -244 63 -19 92 -20 1012 -20
1018 0 991 -1 1096 53 109 56 197 162 235 285 19 62 20 95 20 1011 0 1005 0
993 -48 1087 -58 113 -169 207 -289 244 -63 19 -91 20 -1012 19 -794 0 -955
-3 -1000 -15z m1144 -262 c226 -62 418 -199 502 -358 44 -83 60 -161 78 -376
21 -256 58 -386 137 -482 39 -48 112 -97 172 -117 28 -8 51 -20 53 -25 5 -15
-77 -52 -153 -70 -38 -8 -98 -22 -134 -30 -118 -26 -171 -94 -194 -250 -24
-164 -49 -188 -222 -218 -115 -20 -160 -48 -231 -144 -80 -107 -122 -127 -258
-127 -89 1 -109 5 -181 33 -164 65 -343 205 -458 359 -170 226 -238 472 -239
853 0 265 30 418 111 574 98 188 320 333 598 391 97 20 325 13 419 -13z"/>
<path d="M741 2084 c-125 -34 -207 -127 -226 -254 -15 -104 32 -251 100 -307
53 -46 128 -74 195 -74 126 -1 216 55 271 167 29 58 32 74 33 157 1 76 -3 101
-22 143 -61 134 -212 207 -351 168z"/>
<path d="M1491 2084 c-167 -45 -252 -188 -222 -371 28 -163 141 -264 296 -264
118 0 209 56 264 163 31 61 34 75 35 160 1 75 -3 102 -20 139 -64 139 -213
212 -353 173z"/>
</g>
</svg>
