<svg width="314" height="313" viewBox="0 0 314 313" fill="none" xmlns="http://www.w3.org/2000/svg">
<path d="M135.185 6C197.11 6 249.833 55.9956 249.833 116.567V143.011C251.474 157.165 259.351 175.3 282.59 181.465C302.34 186.704 289.816 217.52 269.102 217.52C269.102 217.52 251.185 218.956 243.089 226.653C235.638 233.738 235.117 248.82 234.9 250.69C234.683 252.56 233.258 263.311 228.156 268.957C222.516 275.201 211.489 277.189 208.406 277.611C205.322 278.032 197.496 277.463 191.546 280.495C186.227 283.205 183.338 285.577 180.467 290.71C177.576 295.878 178.646 299.508 174.686 303.089C173.178 304.453 172.234 305.206 170.35 305.973C168.403 306.766 166.699 306.892 165.051 306.935C72.5619 309.338 21.5 244.921 21.5 176.177V116.567H21.5488C21.5 54.0726 73.2604 6 135.185 6Z" fill="#BFD2D3"/>
<path d="M52.5 120.5C52.5 30 132.5 7.5 132.5 7.5L90 14.5L48.5 43L24 94.5V185.5L35.5 237L65.5 275.5L109 300.5L172.5 303.5C172.5 303.5 52.5 281 52.5 188.5V120.5Z" fill="#A6B6B7"/>
<path d="M128 9.49973C128 9.49973 133.287 9.03709 141.194 10.6347L174.5 13.4997L218 40.4997L243 83.4997L247.5 141L260.5 175L292 189V204.5C292 204.5 288.844 210.352 277.5 211C249.244 212.613 218 185.5 215 165.5C212 145.5 217 96.9999 192.5 51.4997C176.907 22.5418 155.036 13.4315 141.194 10.6347L128 9.49973Z" fill="#768182"/>
<path d="M22.5 114.975L22.5 114.97C22.4521 53.5253 73.256 6 134.38 6C195.497 6 247.259 55.5191 247.259 114.975V142.473C247.259 159.007 258.757 181.096 285.682 188.259C289.454 189.262 291.715 191.197 292.92 193.221C294.141 195.27 294.524 197.813 293.827 200.498C292.475 205.703 286.497 212.511 272.605 213.986C272.397 214.008 272.154 214.032 271.881 214.06C269.531 214.295 264.895 214.76 259.818 216.056C254.217 217.485 247.395 220.083 242.126 225.108C237.013 229.983 234.653 236.572 233.449 241.857C232.488 246.075 232.127 250.24 231.933 252.486C231.886 253.031 231.848 253.463 231.815 253.755C231.325 257.982 230.17 265.155 226.324 269.425C224.393 271.568 221.19 273.29 217.582 274.541C214.086 275.753 210.844 276.308 209.487 276.495C209.037 276.556 208.275 276.594 206.835 276.655C205.535 276.71 203.886 276.781 202.114 276.947C198.638 277.274 194.178 278.007 190.091 280.095C187.114 281.616 184.467 283.216 182.102 285.353C179.698 287.525 177.822 290.037 176.092 293.138C174.471 296.045 173.725 298.774 173.239 300.549C173.15 300.875 173.069 301.169 172.994 301.426C172.528 303.013 172.195 303.684 171.307 304.489C169.975 305.697 169.599 305.959 168.575 306.378C167.565 306.79 166.662 306.896 165.192 306.934C118.747 308.145 83.1771 292.56 59.2156 268.46C35.1912 244.298 22.5 211.239 22.5 176.962L22.5 114.975Z" stroke="#303133" stroke-width="12"/>
<circle cx="86" cy="96.5" r="31.5" fill="#2F3555" stroke="#2F3555" stroke-width="12"/>
<path d="M86.5 96.5C86.5 107.822 86.5 117 86.5 117C74.902 117 65.5 107.822 65.5 96.5C65.5 85.1782 74.902 76 86.5 76C86.5 76 86.5 85.1782 86.5 96.5Z" fill="#52D784"/>
<circle cx="181" cy="96.5" r="31.5" fill="#2F3555" stroke="#2F3555" stroke-width="12"/>
<path d="M181.5 96.5C181.5 107.822 181.5 117 181.5 117C169.902 117 160.5 107.822 160.5 96.5C160.5 85.1782 169.902 76 181.5 76C181.5 76 181.5 85.1782 181.5 96.5Z" fill="#60D5DC"/>
</svg>
